<svg width="93" height="16" viewBox="0 0 93 16" fill="none" xmlns="http://www.w3.org/2000/svg">
<path d="M3.66 5.42C3.98 4.9 4.44 4.48 5.04 4.16C5.64 3.84 6.32667 3.68 7.1 3.68C8.02 3.68 8.85333 3.91333 9.6 4.38C10.3467 4.84667 10.9333 5.51333 11.36 6.38C11.8 7.24667 12.02 8.25333 12.02 9.4C12.02 10.5467 11.8 11.56 11.36 12.44C10.9333 13.3067 10.3467 13.98 9.6 14.46C8.85333 14.9267 8.02 15.16 7.1 15.16C6.31333 15.16 5.62667 15.0067 5.04 14.7C4.45333 14.38 3.99333 13.96 3.66 13.44V15H0.24V0.2H3.66V5.42ZM8.54 9.4C8.54 8.54667 8.3 7.88 7.82 7.4C7.35333 6.90667 6.77333 6.66 6.08 6.66C5.4 6.66 4.82 6.90667 4.34 7.4C3.87333 7.89333 3.64 8.56667 3.64 9.42C3.64 10.2733 3.87333 10.9467 4.34 11.44C4.82 11.9333 5.4 12.18 6.08 12.18C6.76 12.18 7.34 11.9333 7.82 11.44C8.3 10.9333 8.54 10.2533 8.54 9.4ZM24.3342 9.24C24.3342 9.56 24.3142 9.89333 24.2742 10.24H16.5342C16.5876 10.9333 16.8076 11.4667 17.1942 11.84C17.5942 12.2 18.0809 12.38 18.6542 12.38C19.5076 12.38 20.1009 12.02 20.4342 11.3H24.0742C23.8876 12.0333 23.5476 12.6933 23.0542 13.28C22.5742 13.8667 21.9676 14.3267 21.2342 14.66C20.5009 14.9933 19.6809 15.16 18.7742 15.16C17.6809 15.16 16.7076 14.9267 15.8542 14.46C15.0009 13.9933 14.3342 13.3267 13.8542 12.46C13.3742 11.5933 13.1342 10.58 13.1342 9.42C13.1342 8.26 13.3676 7.24667 13.8342 6.38C14.3142 5.51333 14.9809 4.84667 15.8342 4.38C16.6876 3.91333 17.6676 3.68 18.7742 3.68C19.8542 3.68 20.8142 3.90667 21.6542 4.36C22.4942 4.81333 23.1476 5.46 23.6142 6.3C24.0942 7.14 24.3342 8.12 24.3342 9.24ZM20.8342 8.34C20.8342 7.75333 20.6342 7.28667 20.2342 6.94C19.8342 6.59333 19.3342 6.42 18.7342 6.42C18.1609 6.42 17.6742 6.58667 17.2742 6.92C16.8876 7.25333 16.6476 7.72667 16.5542 8.34H20.8342ZM32.3584 12.1V15H30.6184C29.3784 15 28.4118 14.7 27.7184 14.1C27.0251 13.4867 26.6784 12.4933 26.6784 11.12V6.68H25.3184V3.84H26.6784V1.12H30.0984V3.84H32.3384V6.68H30.0984V11.16C30.0984 11.4933 30.1784 11.7333 30.3384 11.88C30.4984 12.0267 30.7651 12.1 31.1384 12.1H32.3584ZM33.5834 9.4C33.5834 8.25333 33.7968 7.24667 34.2234 6.38C34.6634 5.51333 35.2568 4.84667 36.0034 4.38C36.7501 3.91333 37.5834 3.68 38.5034 3.68C39.2901 3.68 39.9768 3.84 40.5634 4.16C41.1634 4.48 41.6234 4.9 41.9434 5.42V3.84H45.3634V15H41.9434V13.42C41.6101 13.94 41.1434 14.36 40.5434 14.68C39.9568 15 39.2701 15.16 38.4834 15.16C37.5768 15.16 36.7501 14.9267 36.0034 14.46C35.2568 13.98 34.6634 13.3067 34.2234 12.44C33.7968 11.56 33.5834 10.5467 33.5834 9.4ZM41.9434 9.42C41.9434 8.56667 41.7034 7.89333 41.2234 7.4C40.7568 6.90667 40.1834 6.66 39.5034 6.66C38.8234 6.66 38.2434 6.90667 37.7634 7.4C37.2968 7.88 37.0634 8.54667 37.0634 9.4C37.0634 10.2533 37.2968 10.9333 37.7634 11.44C38.2434 11.9333 38.8234 12.18 39.5034 12.18C40.1834 12.18 40.7568 11.9333 41.2234 11.44C41.7034 10.9467 41.9434 10.2733 41.9434 9.42ZM47.2577 7.96C47.2577 6.57333 47.5577 5.34 48.1577 4.26C48.7577 3.16667 49.591 2.32 50.6577 1.72C51.7377 1.10667 52.9577 0.799999 54.3177 0.799999C55.9843 0.799999 57.411 1.24 58.5977 2.12C59.7843 3 60.5777 4.2 60.9777 5.72H57.2177C56.9377 5.13333 56.5377 4.68667 56.0177 4.38C55.511 4.07333 54.931 3.92 54.2777 3.92C53.2243 3.92 52.371 4.28667 51.7177 5.02C51.0643 5.75333 50.7377 6.73333 50.7377 7.96C50.7377 9.18667 51.0643 10.1667 51.7177 10.9C52.371 11.6333 53.2243 12 54.2777 12C54.931 12 55.511 11.8467 56.0177 11.54C56.5377 11.2333 56.9377 10.7867 57.2177 10.2H60.9777C60.5777 11.72 59.7843 12.92 58.5977 13.8C57.411 14.6667 55.9843 15.1 54.3177 15.1C52.9577 15.1 51.7377 14.8 50.6577 14.2C49.591 13.5867 48.7577 12.74 48.1577 11.66C47.5577 10.58 47.2577 9.34667 47.2577 7.96ZM70.232 15L67.312 9.7H66.492V15H63.072V0.96H68.812C69.9187 0.96 70.8587 1.15333 71.632 1.54C72.4187 1.92667 73.0054 2.46 73.392 3.14C73.7787 3.80667 73.972 4.55333 73.972 5.38C73.972 6.31333 73.7054 7.14667 73.172 7.88C72.652 8.61333 71.8787 9.13333 70.852 9.44L74.092 15H70.232ZM66.492 7.28H68.612C69.2387 7.28 69.7054 7.12667 70.012 6.82C70.332 6.51333 70.492 6.08 70.492 5.52C70.492 4.98667 70.332 4.56667 70.012 4.26C69.7054 3.95333 69.2387 3.8 68.612 3.8H66.492V7.28ZM92.0189 0.96V15H88.5989V6.58L85.4589 15H82.6989L79.5389 6.56V15H76.1189V0.96H80.1589L84.0989 10.68L87.9989 0.96H92.0189Z" fill="#5E81F4"/>
</svg>
