<svg xmlns="http://www.w3.org/2000/svg" width="15" height="26" viewBox="0 0 15 26">
  <path fill="#FF808B" d="M23.5167036,47.6 C22.7343092,47.6 22.1,46.9656908 22.1,46.1832964 L22.1,23.5167036 C22.1,22.7343092 22.7343092,22.1 23.5167036,22.1 L29.183385,22.1 C33.0953568,22.1 36.2666372,25.2712804 36.2666372,29.1832522 L36.2666372,32.0165265 C36.2666372,35.9284983 33.0953568,39.0997786 29.183385,39.0997786 L24.9334071,39.0997786 L24.9334071,46.1830308 C24.9334071,46.9656908 24.2992307,47.6 23.5167036,47.6 Z M24.9334071,36.2666372 L29.183385,36.2666372 C31.5305681,36.2666372 33.4333628,34.3638424 33.4333628,32.0166593 L33.4333628,29.183385 C33.4333628,26.8362019 31.5305681,24.9334071 29.183385,24.9334071 L24.9334071,24.9334071 L24.9334071,36.2666372 Z" transform="translate(-22 -22)"/>
</svg>
