<svg xmlns="http://www.w3.org/2000/svg" width="26" height="21" viewBox="0 0 26 21">
  <path fill="#2CE5F6" d="M42.5,31.6625 L42.5,32.0875 L38.15395,44.066975 C38.03665,44.506425 37.604,44.8375 37.1127,44.8375 L37.1127,44.8375 L18.090125,44.8375 C17.830025,44.8375 17.85,44.72445 17.85,44.4125 L17.85,44.4125 L17.85,43.9875 L22.718375,31.839725 C22.746425,31.7356 22.84205,31.6625 22.95,31.6625 L22.95,31.6625 L42.5,31.6625 L42.5,31.6625 Z M26.143875,24.0125 L28.268875,26.9875 L38.7889,26.9875 C39.42895,26.9875 39.95,27.508125 39.95,28.1486 L39.95,28.1486 L39.95,30.8125 L22.410675,30.8125 C21.919375,30.8125 21.486725,31.143575 21.36985,31.582175 L21.36985,31.582175 L17,42.9369 L17,25.1736 C17,24.53355 17.52105,24.0125 18.1611,24.0125 L18.1611,24.0125 L26.143875,24.0125 Z" transform="translate(-17 -24)"/>
</svg>
