<svg xmlns="http://www.w3.org/2000/svg" width="26" height="26" viewBox="0 0 26 26">
  <path fill="#E56353" d="M19.6609938,47.4292031 C18.8424563,47.4292031 18.1993128,46.9614535 17.9069572,46.6690979 C16.9130257,45.4997725 16.9130257,44.5058411 17.0884197,43.8626976 C17.2053814,43.2779863 17.5561693,42.7518045 18.0823511,42.4010166 C18.8424563,41.8163053 20.9471838,40.3547214 24.0459397,39.0684344 C25.6830147,36.08664 26.7939078,33.6894599 27.5539159,31.7601264 C26.2676289,29.304514 25.7998793,27.3166511 25.6830147,26.3227197 C25.566053,25.5041822 25.6245824,24.6856447 25.8584087,23.9840689 C26.4431199,22.1131677 27.7293099,22.0546383 28.2554917,22.1131677 C28.3724534,22.1131677 30.4187486,22.4055233 30.7695365,25.3287882 C30.7695365,25.4457499 31.0033627,27.3166511 29.4248171,31.701597 C30.4187486,33.3971043 31.8219002,35.2681026 33.9852541,37.0805715 C36.0315493,37.0805715 38.2533354,37.2559654 40.5919862,37.8406767 C41.1181681,37.9576383 41.5859177,38.2498969 41.9367056,38.6592141 C42.5214168,39.3023577 42.6382814,40.1208951 42.3459258,40.9394326 L42.3459258,40.9394326 C42.3459258,40.9394326 42.2289641,41.3486528 41.8781762,41.7579701 C41.2350327,42.6349399 40.007275,42.9272955 39.0133436,42.4011136 C36.7916544,41.2317882 34.9206562,40.0040306 33.4005429,38.7177435 C30.3017869,38.8347052 27.5539159,39.536281 25.3321297,40.4132508 C24.3381983,42.2257197 23.1104406,44.2135825 21.7071919,46.4352717 C21.4148363,46.8444919 21.0640484,47.1953768 20.5962988,47.3707708 L20.5962988,47.3707708 C20.1871757,47.3706737 19.89482,47.4292031 19.6609938,47.4292031 Z M22.5258264,41.5240468 C20.7717898,42.4595459 19.5440321,43.2780834 19.0762826,43.6873036 C18.9008886,43.8626976 18.7254947,44.0380915 18.7254947,44.2134855 C18.608533,44.6227057 18.783927,45.032023 19.1932442,45.4997725 C19.1932442,45.4997725 19.5440321,45.7921281 19.89482,45.6751665 L19.89482,45.6751665 C20.0117817,45.6167342 20.1286463,45.5582048 20.1871757,45.3828109 C21.0057131,44.0380915 21.8242506,42.7518045 22.5258264,41.5240468 Z M36.1485109,38.7176464 C37.2008746,39.4192223 38.3702,40.1793274 39.6564871,40.822471 C39.8903133,40.9394326 40.182669,40.8809033 40.3580629,40.647077 C40.5334569,40.4132508 40.5918892,40.2378568 40.5918892,40.2378568 C40.7088508,39.9455012 40.7088508,39.8286366 40.5334569,39.6531456 C40.4164952,39.5361839 40.2411013,39.4193193 40.007275,39.36079 C38.721085,39.0100021 37.434798,38.8346081 36.1485109,38.7176464 Z M28.5478473,33.514163 C27.9631361,34.8588824 27.2615603,36.3789957 26.3261582,38.1330323 C27.9048009,37.6652827 29.6003081,37.2560625 31.4712094,37.0806685 C30.301884,35.8528138 29.3079525,34.624959 28.5478473,33.514163 Z M27.9632332,23.6917133 C27.7294069,23.6917133 27.554013,23.9255395 27.378522,24.4518184 C27.203128,24.919568 27.203128,25.4457499 27.2615603,26.0304611 C27.378522,26.7320369 27.6123482,27.9013623 28.2554917,29.4214756 C29.1324615,26.6150753 29.0155969,25.4457499 29.0155969,25.4457499 C28.840203,23.8671072 28.0216655,23.6917133 27.9632332,23.6917133 L27.9632332,23.6917133 Z" transform="translate(-17 -22)"/>
</svg>
