<svg xmlns="http://www.w3.org/2000/svg" width="24" height="22" viewBox="0 0 24 22">
  <path fill="#5E81F4" d="M34.1916127,44.9798325 C33.6027705,44.9792126 33.085536,44.5889638 32.9229942,44.023041 L28.905661,29.9677641 L24.8883279,44.023041 C24.598181,44.7243739 23.7943922,45.0577579 23.0929354,44.767611 C22.7557108,44.6281125 22.4878638,44.3602656 22.3483654,44.023041 L17.0625376,25.522396 C16.8412727,24.8268859 17.2258227,24.0838025 17.9213328,23.8625376 C18.616843,23.6412727 19.3599264,24.0258227 19.5811913,24.7213328 C19.5889963,24.7458628 19.5960579,24.7706405 19.6025001,24.7955421 L23.6197094,38.8480935 L27.6370426,24.7929404 C27.9271895,24.0916075 28.7309782,23.7582235 29.432435,24.0483704 C29.7696596,24.1878689 30.0375066,24.4557158 30.1770051,24.7929404 L34.1916127,38.8482173 L38.2089459,24.795666 C38.3991147,24.1001558 39.1171726,23.6904564 39.8126828,23.8806253 C39.8225939,23.8833509 39.8323811,23.8862003 39.8422922,23.8890497 C40.5435012,24.0899969 40.9492361,24.8210631 40.7487845,25.522396 L35.4628328,44.023041 C35.3000433,44.5899549 34.7813221,44.9803276 34.1916127,44.9798325 Z" transform="translate(-17 -23)"/>
</svg>
