<svg xmlns="http://www.w3.org/2000/svg" width="24" height="24" viewBox="0 0 24 24">
  <path fill="#F4BE5E" d="M25.8595725,22.3315056 C26.1340609,22.4553316 26.353763,22.6751451 26.477589,22.9495221 L31.2226254,37.1813935 C31.2297827,37.2015887 31.2364092,37.2220351 31.2424881,37.2427157 L33.6042656,44.3295518 C33.8116073,44.9519111 33.4750946,45.6244913 32.8527353,45.831833 C32.7319158,45.8720319 32.6055287,45.8927438 32.4782507,45.8927438 C31.9672457,45.8922984 31.5136996,45.5651394 31.3522358,45.0803027 L29.2471211,38.765081 L21.4551211,38.765081 L19.3509124,45.0803027 C19.1199636,45.6943104 18.4350231,46.0048776 17.8210154,45.7739287 C17.2397459,45.5553402 16.9249472,44.9257429 17.0988826,44.3295518 L19.4607715,37.2427157 C19.4668504,37.2220351 19.4734769,37.2015887 19.4806342,37.1813935 L24.2255592,22.9495221 C24.5060607,22.3276082 25.2376586,22.0508927 25.8595725,22.3315056 Z M39.6049273,26.8882358 C40.2609156,26.8882358 40.7927438,27.4200641 40.7927438,28.0760524 L40.7927438,44.7049273 C40.7927438,45.3609156 40.2609156,45.8927438 39.6049273,45.8927438 C38.948939,45.8927438 38.4171107,45.3609156 38.4171107,44.7049273 L38.4171107,28.0760524 C38.4171107,27.4200641 38.948939,26.8882358 39.6049273,26.8882358 Z M25.3515741,27.0806561 L22.2471211,36.390081 L28.4551211,36.390081 L25.3515741,27.0806561 Z M39.6049273,22.137081 C40.2609402,22.137081 40.7927438,22.6688846 40.7927438,23.3248975 C40.7927438,23.9809105 40.2609402,24.5127141 39.6049273,24.5127141 C38.9489143,24.5127141 38.4171107,23.9809105 38.4171107,23.3248975 C38.4171107,22.6688846 38.9489143,22.137081 39.6049273,22.137081 Z" transform="translate(-17 -22)"/>
</svg>
