<svg xmlns="http://www.w3.org/2000/svg" width="24" height="23" viewBox="0 0 24 23">
  <path fill="#5E81F4" d="M40.4694425,31.8552287 C40.9028667,32.2633584 40.9221953,32.9443813 40.5126534,33.3763109 C40.1323645,33.7773885 39.5159606,33.8226453 39.0828195,33.5002928 L38.9863079,33.4193728 C37.96979,32.6489991 36.6321758,32.4410516 35.4285457,32.8664262 C34.6797935,33.1980126 34.2345293,33.9764541 34.3297551,34.7875702 C34.3297551,35.848183 34.9774121,36.1666592 36.6807501,36.7432041 C38.4315492,37.3305397 40.8063254,38.1352016 40.8063254,41.2418075 C40.9721863,42.9369524 40.0301489,44.5474863 38.4682835,45.2390982 C37.868796,45.4821406 37.2264011,45.602855 36.5792501,45.5940813 C35.0945975,45.6049728 33.6524475,45.0998279 32.5011359,44.165577 C32.0724679,43.7496821 32.0633603,43.0663397 32.4805931,42.6391499 C32.8979271,42.2119601 33.5836339,42.2028838 34.0123019,42.6186779 C35.0529046,43.3865304 36.3939595,43.6252363 37.6370562,43.2641016 C37.8896424,43.1564974 38.6603543,42.8337855 38.6603543,41.2482618 C38.6603543,39.8262118 37.8917675,39.4238304 36.0028353,38.7848609 C34.3772162,38.2297965 32.1708308,37.489677 32.1708308,34.7875702 C32.0622471,33.1120906 33.0249286,31.5501652 34.5736384,30.8892109 C36.5692316,30.1210558 38.8258104,30.4907626 40.4694425,31.8552287 Z M28.0258259,25.8075075 C29.3609101,26.9889355 30.090435,28.7070736 30.0120078,30.4847118 C29.9892386,32.6663448 28.8318553,34.6797643 26.9550666,35.8030033 C24.6483957,37.2332219 21.8943353,37.7677135 19.2176903,37.3047228 L19.2176903,44.4689262 C19.2177915,45.0630185 18.7344774,45.544666 18.1383294,45.544666 C17.5421813,45.544666 17.0588235,45.0630185 17.0588235,44.4689262 L17.0588235,25.1062143 C17.0540098,24.5641592 17.4545452,24.1030847 17.9936185,24.0304745 C21.1520597,23.6001584 25.4525023,23.5636516 28.0258259,25.8075075 Z M19.2176903,26.0635592 L19.2176903,35.1017101 L19.2177915,35.1017101 C21.4624291,35.5952575 23.8117037,35.2027592 25.7720806,34.0066075 C27.0471554,33.2873635 27.8405352,31.9448821 27.8531848,30.4847118 C27.9233139,29.3324287 27.4641858,28.2108033 26.6053318,27.436194 C24.413114,26.0449024 21.7657147,25.5529685 19.2176903,26.0635592 Z" transform="translate(-17 -23)"/>
</svg>
