<svg xmlns="http://www.w3.org/2000/svg" width="18" height="26" viewBox="0 0 18 26">
  <path fill="#8AF1B9" d="M36.5964433,22.3861521 C37.2664098,22.7744356 37.4947268,23.632366 37.1064433,24.302201 C37.0911959,24.3284897 37.0751598,24.3542526 37.0582036,24.3794897 L30.5085889,34.8579074 L37.0555747,45.3319459 C37.4643634,45.9895567 37.2627294,46.8540593 36.6051186,47.2629794 C36.3833737,47.400732 36.1275851,47.4739459 35.8665387,47.4743402 C35.3830902,47.4743402 34.933817,47.2252552 34.677634,46.8154149 L28.8565889,37.5009074 L23.0376727,46.8125232 C22.7816211,47.2243351 22.3309021,47.4747345 21.8458763,47.4743407 C21.0715438,47.4727629 20.4450851,46.8438067 20.4466594,46.0694742 C20.4471881,45.8076392 20.5210593,45.5511933 20.659732,45.3291856 L27.2035889,34.8579074 L20.6569716,24.3823814 C20.2259691,23.7390979 20.3981598,22.8681546 21.0414433,22.4371521 C21.6847268,22.0061495 22.5556701,22.1783402 22.9866727,22.8216237 C23.0036289,22.8468608 23.0196649,22.8726237 23.0349124,22.8989124 L28.8565889,32.2139074 L34.6803943,22.8961521 C35.0686778,22.2261856 35.9266082,21.9978686 36.5964433,22.3861521 Z" transform="translate(-20 -22)"/>
</svg>
