<?xml version="1.0" encoding="utf-8"?>
<!-- Generator: Adobe Illustrator 24.2.3, SVG Export Plug-In . SVG Version: 6.00 Build 0)  -->
<svg version="1.1" xmlns="http://www.w3.org/2000/svg" xmlns:xlink="http://www.w3.org/1999/xlink" x="0px" y="0px"
	 viewBox="0 0 1600 1200" style="enable-background:new 0 0 1600 1200;" xml:space="preserve">
<style type="text/css">
	.st0{fill:#F5F5F5;stroke:#F5F5F5;stroke-miterlimit:10;}
	.st1{display:none;fill:none;stroke:#B2B2B2;stroke-width:2;stroke-linecap:round;stroke-linejoin:round;stroke-miterlimit:10;}
	
		.st2{display:none;fill-rule:evenodd;clip-rule:evenodd;fill:none;stroke:#F5F5F5;stroke-width:2;stroke-linecap:round;stroke-linejoin:round;stroke-miterlimit:10;}
	
		.st3{fill-rule:evenodd;clip-rule:evenodd;fill:none;stroke:#B2B2B2;stroke-width:2;stroke-linecap:round;stroke-linejoin:round;stroke-miterlimit:10;}
	.st4{fill-rule:evenodd;clip-rule:evenodd;fill:#7580EF;}
	
		.st5{fill-rule:evenodd;clip-rule:evenodd;fill:none;stroke:#3C50C6;stroke-width:2;stroke-linecap:round;stroke-linejoin:round;stroke-miterlimit:10;}
	.st6{fill-rule:evenodd;clip-rule:evenodd;fill:#E1D6DA;}
	.st7{fill-rule:evenodd;clip-rule:evenodd;}
	.st8{fill-rule:evenodd;clip-rule:evenodd;fill:none;stroke:#3C50C6;stroke-width:2;stroke-miterlimit:10;}
	.st9{fill-rule:evenodd;clip-rule:evenodd;fill:#3C50C6;}
	.st10{fill-rule:evenodd;clip-rule:evenodd;fill:#F68E28;}
	.st11{fill:#EC957E;}
	.st12{fill-rule:evenodd;clip-rule:evenodd;fill:#F68F28;}
	
		.st13{fill-rule:evenodd;clip-rule:evenodd;fill:none;stroke:#FFFFFF;stroke-width:2;stroke-linecap:round;stroke-linejoin:round;stroke-miterlimit:10;}
	
		.st14{fill-rule:evenodd;clip-rule:evenodd;fill:none;stroke:#E56F17;stroke-width:2;stroke-linecap:round;stroke-linejoin:round;stroke-miterlimit:10;}
	.st15{fill-rule:evenodd;clip-rule:evenodd;fill:#EC957E;}
	.st16{fill-rule:evenodd;clip-rule:evenodd;fill:#FFFFFF;}
	
		.st17{fill-rule:evenodd;clip-rule:evenodd;fill:none;stroke:#000000;stroke-width:2;stroke-linecap:round;stroke-linejoin:round;stroke-miterlimit:10;}
	.st18{fill-rule:evenodd;clip-rule:evenodd;fill:#C25664;}
	
		.st19{fill-rule:evenodd;clip-rule:evenodd;fill:#E1D6DA;stroke:#B2B2B2;stroke-width:2;stroke-linecap:round;stroke-linejoin:round;stroke-miterlimit:10;}
	.st20{fill-rule:evenodd;clip-rule:evenodd;fill:none;stroke:#8D1A33;stroke-width:2;stroke-linecap:round;stroke-miterlimit:10;}
	.st21{fill-rule:evenodd;clip-rule:evenodd;fill:#8D1A33;}
	
		.st22{fill-rule:evenodd;clip-rule:evenodd;fill:none;stroke:#C25664;stroke-width:2;stroke-linecap:round;stroke-linejoin:round;stroke-miterlimit:10;}
	.st23{fill-rule:evenodd;clip-rule:evenodd;fill:#F78F28;}
	.st24{fill-rule:evenodd;clip-rule:evenodd;fill:#C25663;}
	.st25{fill-rule:evenodd;clip-rule:evenodd;fill:#78323E;}
	
		.st26{fill-rule:evenodd;clip-rule:evenodd;fill:none;stroke:#E1D6DA;stroke-width:2;stroke-linecap:round;stroke-linejoin:round;stroke-miterlimit:10;}
	.st27{fill-rule:evenodd;clip-rule:evenodd;fill:#7480F0;}
	.st28{fill:none;stroke:#000000;stroke-width:2;stroke-linecap:round;stroke-linejoin:round;stroke-miterlimit:10;}
	
		.st29{fill-rule:evenodd;clip-rule:evenodd;fill:none;stroke:#78323E;stroke-width:2;stroke-linecap:round;stroke-linejoin:round;stroke-miterlimit:10;}
	.st30{fill:#C25663;}
	
		.st31{fill-rule:evenodd;clip-rule:evenodd;fill:none;stroke:#7480EF;stroke-width:2;stroke-linecap:round;stroke-linejoin:round;stroke-miterlimit:10;}
	.st32{fill-rule:evenodd;clip-rule:evenodd;fill:#000001;}
	.st33{fill-rule:evenodd;clip-rule:evenodd;fill:#7480EF;}
	
		.st34{fill-rule:evenodd;clip-rule:evenodd;fill:#7480EF;stroke:#FFFFFF;stroke-width:2;stroke-linecap:round;stroke-linejoin:round;stroke-miterlimit:10;}
	.st35{fill-rule:evenodd;clip-rule:evenodd;fill:none;stroke:#7480EF;stroke-width:2;stroke-miterlimit:10;}
	.st36{fill:#EC957E;stroke:#000000;stroke-width:2;stroke-linecap:round;stroke-linejoin:round;stroke-miterlimit:10;}
	.st37{fill-rule:evenodd;clip-rule:evenodd;fill:#C23D2B;}
</style>
<g id="Layer_5">
	<rect y="1" class="st0" width="1600" height="1200"/>
	<path class="st1" d="M1172.8,879.8c-25.6,0-50.6-4.8-74.3-14.1c-72.3-24.5-164.5-36.5-281.8-36.5c-60.3,0-118.2,3-169.4,5.7
		c-65.3,3.4-116.9,6.1-144.8,0.9c-156.7-29-270.4-165.8-270.4-325.3c0-182.5,148.6-330.9,331.2-330.9c44.4,0,146.2,18.1,213.3,86.7
		c168.3,172.1,315.2,195.3,403,209.1c25.9,4.1,46.3,7.3,60.8,13.3c80.1,28.5,134,104.7,134,189.8
		C1374.4,789.5,1284,879.8,1172.8,879.8z"/>
	<path class="st2" d="M1091,920.3c223.1-82.4,354.7-302,279.2-505.9c-77.9-210.4-291.8-263.2-527.8-225.2
		C93,309.8,125,649.7,378.4,758.2C604.8,855.3,867.9,1002.7,1091,920.3z"/>
	<path class="st3" d="M1347.2,536.9c22.6,98.4-13.7,197-86.3,260.8c-86.1,81.9-287,121.2-642.7,41.4
		c-217.6-48.8-382-166.8-370.1-371.6c11.6-198.5,207.4-339.2,430.6-332.4c104.7,3.2,197.7,52.4,283.5,120.2
		c50.5,39.9,110.2,67.2,174.2,80.1C1238.2,356,1323,431.9,1347.2,536.9z"/>
</g>
<g id="Character_4">
	<path id="Right_hand_2_1_" class="st4" d="M927,327.3c-0.4,3.2-1.1,6.3-2.1,9.3c-0.2,1-0.5,2-0.9,3.1
		C910.5,371,856.1,445,783.4,442.5c-11.9,1.1-24.1-2.9-33-12.1c-15.4-15.9-14.9-41,1.3-56.2c1-0.9,2-1.8,3.1-2.6
		c2.2-2.1,4.8-3.7,7.6-4.6c0.2-0.1,0.3-0.1,0.5-0.2c1.3-0.6,2.7-1.1,4.1-1.6c29-12.8,68.1-60.8,73.6-67.6
		c9.5-14.9,26.9-24.1,45.5-22.1C911.8,278.2,930.2,301.4,927,327.3z"/>
	<g id="Body_3_">
		<path class="st4" d="M963,518.7c54.7,0.9,98.3,6.6,98.1,12.8c-0.2,6.2-44.1,10.5-98.8,9.6c-54.7-0.9-99-6.6-98.8-12.8
			C863.7,522.2,908.2,517.8,963,518.7z"/>
		<path class="st4" d="M1055.2,359.8c24.9,53.1,47.1,121.3,5.9,135.7c0.1,13.6-0.1,36.5-0.1,36.5l-0.1,0c-1.5-6-45-11.6-98.7-12.4
			c-50.4-0.8-92.1,2.8-98.6,8.2l-0.1,0.4c0,0-0.1-17,0.3-30.5c-16.5-5.9-28.2-49.6-11.5-92.3c4-10.2,8.3-23.7,12.6-38.3
			c-20.7-6.7-34.3-27.3-31.6-49.9c3.2-25.9,26.7-44.7,52.6-42c1.1,0.1,2.1,0.3,3.2,0.5c0-0.1,0-0.1,0-0.1l130.7,18.4
			c0,0,0.2,0.3,0.4,0.7c24.5,4,41.6,26.5,38.5,51.5C1058.3,351.2,1057,355.6,1055.2,359.8z"/>
		<path class="st5" d="M852.3,405.5c0,0,19.7-62.2,27.3-91.7"/>
		<path class="st6" d="M946.2,333.3c0,0,70-27.2,47.1-43.2c-7-4.9-49-8.3-54-7.7C906,286.5,946.2,333.3,946.2,333.3z"/>
		<path class="st7" d="M1069.7,329.6c0,0-31.5,10.8-34.8,25.4c-7.4,33.1-3.9,84.6,56.1,97.7C1171.9,470.5,1069.7,329.6,1069.7,329.6
			z"/>
	</g>
	<g id="Bag">
		<path class="st7" d="M855.9,430.5l-4.1,12.5c0,0,38.2,47.4,96.1,11.9c39.9-24.4,40.7-68.9,37.4-95.7c-1.4-11.6-10.8-0.3-11-2.3
			L855.9,430.5z"/>
		<path class="st7" d="M861.4,452.1c-12.9,1-17.1-4.7-17.1-4.7l-1.4-28.8c0,0,0.1-0.1,0.3-0.2c-0.5-3.9,3.9-11,12.1-20.1l-2.9,8.8
			c-1.9,3.5-2.4,6.1-1.3,7.7c5.5,7.7,47.5-12.6,93.9-45.3c45-31.8,77.6-63.6,74.5-72.6c1-1.7-5-3.3-11.8-4.5
			c8.9-3.2,15.2-4.1,17.9-2.2c0.2-0.2,10.2,8.5,14.2,12.5C1040.3,377,897.8,449.4,861.4,452.1z"/>
		<path class="st8" d="M867.7,425.9c16.1-3.6,48.9-21.3,84.2-46.3c7.6-5.4,14.9-10.8,21.7-16.1"/>
		<path class="st9" d="M967.4,386.4l10.8-1l-2.7-19h0l0-6l-5.7,0.5l0,6l0,0L967.4,386.4z M970.2,383.5l0.8-6.2l3.6-0.3l0.8,6
			L970.2,383.5z"/>
		<path class="st8" d="M883.7,460.7c-1.2-1.2-2.1-2.5-2.8-3.9c-5.7-11.4,4.8-28.4,26-40.3c23.8-13.3,51.9-15.2,62.9-4.1
			c0.8,0.8,1.5,1.7,2.1,2.6"/>
	</g>
	<path id="Pelvis_1_" class="st10" d="M958.9,525.4l6.5-3.6l-90.2,8.2l-2.9,21.2l0.2,0c0.2,6,40.8,51.6,90.1,45.9
		c49.5-5.7,88.2-61.2,88.4-66.8C1051.1,524.8,1007.4,520.1,958.9,525.4z"/>
	<g id="Right_leg_3_">
		<path class="st11" d="M934.8,1001.2L846.1,791c-6.1-14.4-7.3-30.1-3.6-45.4l32.1-179.9l83.9,4.5L910,753c-1.5,6.1-1,12.4,1.4,18.1
			c0,0,12.3,12.4,17.5,27.7c16.5,48.2,58.9,187,58.9,187s-5.7,41.3-21.3,45.4C952.7,1034.8,934.8,1001.2,934.8,1001.2z"/>
		<path class="st6" d="M980.8,1059c0,0-13.4,3.1-25.2,4.7c-10,1.4-11.2,13.3-28.6,20.9c-12.9,5.6-46.9,10.3-70.7,9
			c-28.6-1.7-36.1-8-33.9-8.3c0,0-1.2-14.6,17-15.5c18.2-0.9,35-3.6,35-3.6s37.7-25.4,53.6-55.5c6.1-3.3,12.8-0.8,23.7-0.3
			c8.7,13.4,9.5,20.2,9.5,20.2s9.9-2.9,15.8-7.9C983.3,1027.8,984,1054.6,980.8,1059z"/>
		<path class="st4" d="M966.6,1031.2c-13.9,3.6-31.8-30-31.8-30l-16.9-40l0.3-0.1c1.6,2,14.7-1.3,30-7.6
			c15.7-6.5,27.6-13.7,26.7-16.1c-0.2-0.5-0.9-0.7-2-0.8l3.4-1.5c10.1,29.1,17.7,50.7,17.7,50.7S982.2,1027.1,966.6,1031.2z"/>
		<path class="st7" d="M923.2,703.1c-13-11.5-57.1-16.6-70-17.4l4.1-22.8l76.4,1L923.2,703.1z"/>
		<path class="st10" d="M956.9,668L956.9,668c0.1,0.2,0.1,0.4,0.1,0.5c-0.1,3.7-24.1,9.5-53.5,12.9c-29.4,3.4-53.1,3.1-52.9-0.6
			c0,0,0-0.1,0-0.1l-0.3,0l21.8-129.6c0,0,45.2-15.9,68.5-4.4c21,10.3,23,43.4,23,43.4L956.9,668z"/>
		<path class="st12" d="M982.9,1049.9c0,0-13,3.1-24.8,4.7c-10,1.4-11.2,13.3-28.6,20.9c-12.9,5.6-43,7-66.7,5.6
			c-28.6-1.7-36.4-7.5-34.2-7.8c0,0,3.7-11.5,21.9-12.4c18.2-0.9,19.1-2.4,19.1-2.4s33.4-33,51.8-61.5c4.7-7.3,13.1-11.5,21.6-10.7
			c0.5,0.1,1.1,0.1,1.6,0.2c6.2,0.6,11.8,3.8,15.5,8.8c5.1,6.9,11.9,14.3,11.9,14.3S1004.8,1019.6,982.9,1049.9z"/>
		<path class="st7" d="M988.2,1022c0,0.6-0.1,1.2-0.1,1.8c-0.2,8.3-2.8,17.4-7,26.6c-4,0.9-13.8,3.1-23,4.3
			c-10,1.4-11.2,13.3-28.6,20.9c-4.7,2-11.6,3.5-19.6,4.5c8.8-25.9,30.5-46.1,53.4-61l9.5-80c13.2,15.3,11.4,61.1,6.8,74.3
			C982.6,1015.2,986,1018,988.2,1022z"/>
		<path class="st13" d="M911,1011.2c0,0,13.9-3.7,29.9,5.8"/>
		<path class="st13" d="M896.3,1030.6c0,0,13.9-3.7,29.9,5.8"/>
		<path class="st13" d="M903.7,1021.2c0,0,13.9-3.7,29.9,5.8"/>
		<path class="st14" d="M892.4,541c0,0-3.5,24-25.6,45.8"/>
		<path class="st14" d="M950.2,590.4l-7.4,84.1"/>
		<path class="st7" d="M964.2,588.9l-3.4,34.8c-18.3-10.2-18.1-34.1-18.1-34.1L964.2,588.9z"/>
	</g>
	<g id="Left_leg_3_">
		<path class="st15" d="M1028,1011.8c1.7-62.1,8-149.2,10.3-192.1c2.5-46.6-10-60.5-2.8-96.9c31.8-159.6,14.2-191.7,14.2-191.7
			l-79,71.6l1.6,423.3C972.3,1026.1,1013,1060.3,1028,1011.8z"/>
		<path class="st4" d="M1030.7,949.2c-1.1,21.9-2.1,43.5-2.6,62.7c-15,48.4-55.7,14.3-55.7,14.3l-0.3-76.3c3.2,2,14.9,3.5,28.9,3.5
			C1016.3,953.2,1029,951.4,1030.7,949.2z"/>
		<path class="st6" d="M1032.4,1056.9c0,0,7.3,19-13.5,22.2c-9.9,1.5-3.3,15-13.5,21.1c-9.3,5.5-23.9,10.4-49.9,10.5
			c-28.9,0.1-34.9-4.1-42.2-7.4c0,0-5.2-16.8,12.9-17.7c13.3-12.5,32.9-36.4,45.3-65.9c7,0.1,16.2,0.4,27.1,0.9
			c10.2,13.5,8.5,19.1,8.5,19.1s5.8-4.5,11.1-9.5C1025.1,1035.4,1035.1,1052.5,1032.4,1056.9z"/>
		<path class="st7" d="M971,672.8l0-1.6c42.7-18.2,74.1-31,78.7-32.9c-1.6,12.2-3.5,25.8-6.1,40.8
			C1020.9,686.1,980.9,675.6,971,672.8z"/>
		<path class="st10" d="M1070.6,654.8c0.2,0.2,0.3,0.4,0.3,0.7c-0.1,3.7-24.1,9.5-53.5,12.9c-29.4,3.4-53.1,3.1-52.9-0.6
			c0-0.1,0.1-0.3,0.1-0.4l-1.1-79.2c0,0,0.8-34.9,13.8-43.7c27.8-18.7,73.4-14.3,73.4-14.3l20.2,124.7L1070.6,654.8z"/>
		<path class="st12" d="M1033.9,1062.8c0,0-7.7,5.7-13.8,6.6c-9.9,1.6-3.3,15-13.5,21.1c-9.3,5.5-25,9-48.8,7.6
			c-28.8-1.7-35.7-4.6-43-7.9c0,0,4.5-14.4,12.7-14.2c11.5-10.9,28.4-38.1,40.8-64.3c3.4-7.3,11.1-11.7,19-11
			c3.3,0.3,6.9,0.6,10.3,0.9c7,0.6,12.9,5.1,15.3,11.6c2.8,7.5,2.9,10.4,2.9,10.4s10.8-10,11.4-16.6
			C1034.1,1012.2,1036.8,1041.4,1033.9,1062.8z"/>
		<path class="st13" d="M961.1,1024.4c0,0,22.3-8.1,42.3,6.8"/>
		<path class="st13" d="M948.8,1048c0,0,22.3-8.1,42.3,6.8"/>
		<path class="st13" d="M955.4,1036.4c0,0,22.3-8.1,42.3,6.8"/>
		<path class="st14" d="M996.9,526.7c0,0,1.5,33,40.1,49.1"/>
		<path class="st14" d="M1031.6,524.8c0,0,13.9,108.2,17.7,137.3"/>
	</g>
	<g id="Ropes">
		<g>
			<path class="st13" d="M961.6,543.6c0,0,25,37-29.9,99.4"/>
		</g>
		<path class="st13" d="M942,546.3c0,0,18.5,17.9-8.4,41.2c-38.3,33.2-17.4,55.6-17.4,55.6"/>
		<path class="st16" d="M938.7,631.3c1.7-0.2,3.1,1,3,2.7c-0.1,1.7-1.5,3.3-3.2,3.5c-1.7,0.2-3.1-1-3-2.7
			C935.5,633.1,937,631.5,938.7,631.3z"/>
		<path class="st16" d="M910.6,629.3c1.7-0.2,3.1,1,3,2.7c-0.1,1.7-1.5,3.3-3.2,3.5c-1.7,0.2-3.1-1-3-2.7
			C907.5,631.1,908.9,629.5,910.6,629.3z"/>
	</g>
	<path id="Shadow" class="st7" d="M1053.1,535.8c-31.8-24.8-180.4,11.3-180.4,11.3l1.3-20.6l0,0c1.8-5.4,41.8-9.2,90.3-8.4
		c48.5,0.8,87.7,5.7,88.8,11.2l0.1,0C1053.2,529.2,1052.9,531.7,1053.1,535.8z"/>
	<g id="Right_hand_1">
		<path class="st15" d="M791.2,261.5c0,0-2.2,5.9-2.8,10.5c-2.1,14.1-0.6,26.1-0.5,27.9l8.4-21.6L791.2,261.5z"/>
		<path class="st4" d="M844.6,385.2c-5.6,29.1-34.7,47.4-44.5,52.1c-15.8,9.1-36.5,6.8-49.7-6.8c-7.4-7.6-11.1-17.3-11.2-27.1
			c-1-11.3-1.6-45.7,23.8-64.2c12.8-9.3,22.5-7.7,22.5-7.7l52.1,25.3C837.5,356.7,847.2,371.4,844.6,385.2z"/>
		<path class="st7" d="M815.4,332c15.6,6.4,24.7,20.3,20.3,31.1c-4.4,10.7-20.6,14.3-36.3,7.9c-15.6-6.4-24.7-20.3-20.3-31.1
			C783.5,329.2,799.7,325.6,815.4,332z"/>
		<path class="st15" d="M840.6,335.5l-6.8,21.8c-0.1,1.1-0.4,2.2-0.9,3.3c-3.9,9.6-18.4,12.7-32.4,7c-13.9-5.7-22.1-18.1-18.1-27.7
			c0.6-1.6,1.6-2.9,2.8-4.2l16.5-24.7L840.6,335.5z"/>
		<path class="st7" d="M833.9,357.3c-0.1,0.9-0.3,1.7-0.6,2.5c-7.5-0.7-15.6-4.8-21.9-12c-9.6-11-11.6-25.4-5.4-34.1l34.7,21.8
			L833.9,357.3z"/>
		<path class="st15" d="M824.4,308.7c0,0,29.9,25.4,9.8,33.1c-14.4,5.5-42.7-15.2-44.9-39.6C787.4,281.5,824.4,308.7,824.4,308.7z"
			/>
		<path class="st7" d="M841.2,333.4c-6.4,2.9-16.9,3.5-32.9-6.7c-22.4-14.3,10.1-8,29.1-3.6C839.6,326.6,841.2,330.2,841.2,333.4z"
			/>
		<path class="st7" d="M819.4,232.5l-33.9-0.5c-1.7,0-2.7,1.2-2.2,2.8l26.6,89.2c0.5,1.6,2.2,2.9,3.9,2.9l33.9,0.5
			c1.7,0,2.7-1.2,2.2-2.8l-26.6-89.2C822.8,233.8,821.1,232.5,819.4,232.5z"/>
		<path class="st15" d="M832.5,319.2c12.2,1.6,12.8-9.1,7.5-10.7c8-0.9,9-9.2-1.9-13.2c-15-5.5-33.1-6-33.1-6l1.3-3.7
			c0,0,6.5,2.6,10.6,4c9.4,3.1,14.5-7-2.3-16.7c-9.5-5.5-17.1-7.3-21.8,1.1c-5,8.8-12.2,26.3,5.9,48.7c4.6,15.3,25.8,8.1,29.7,5.5
			C834.1,324.4,833.8,321.7,832.5,319.2z"/>
		<path class="st17" d="M841.6,308.8c0,0-29.4-8.6-47.7-2.9"/>
		<path class="st17" d="M832.4,319.6c-8.3-0.7-23.6-1.5-32.8,2.7"/>
		<path class="st17" d="M816.5,289.7c0.3,0-20.2-2.4-26.4,3.8"/>
		<path class="st17" d="M815.8,289.4l-16.7-6.5"/>
	</g>
	<g id="Head_3_">
		<path class="st15" d="M993.2,287.9c-0.1,4.3-13.2,9.1-29.2,10.7c-16,1.6-28.8-0.5-28.7-4.8c0-0.5,0.2-1,0.5-1.4l-0.4,0l10.2-66.4
			l46.6-0.8l0.7,61.8C993.2,287.2,993.3,287.5,993.2,287.9z"/>
		<path class="st15" d="M935,256.7c2.8,2.7,6.3,4.5,10.1,5.3c3.8,0.8,7.7,0.7,11.5-0.5c10.4-3.4,25.1-11.7,32.8-32
			c14.9,4.6,25.8-18,16.7-24.1c-5.6-3.7-13.2,0.3-17.2,4.5c-0.2,0.2-0.6,0.7-0.7,0.9c0.1-12.3,13.9-25.2,6.9-32.1
			c-37.1-36.5-62.9-8.6-68.4-3.4c-2.1,7.9-2.8,16.3-4.9,28.8C917.4,230.2,925.9,248.2,935,256.7z M988.9,210.1
			C988.9,210.1,988.9,210,988.9,210.1C989,209.9,989,209.9,988.9,210.1z"/>
		<path class="st17" d="M941.3,232c0,0,10.4,1.6,17-5.5"/>
		<path class="st17" d="M940,190.7c-0.9-2.7-10.2-4.6-15.7,1"/>
		<path class="st17" d="M975.3,195c0.3,1.2-5.4-9.9-22.3-5.8"/>
		<path class="st17" d="M942.9,198.4c0,0,0.1,5.2-4.4,13.9c-4.1,7.8,0.9,11.8,9.8,9.2"/>
		<path class="st17" d="M999.5,212.7c0,0,3.5,9.9-7.1,10.9"/>
		<path class="st17" d="M990.3,216.7l13.4-7.2"/>
		<path class="st7" d="M963.5,197.3c-1.5-0.1-2.9,2-3,4.6c-0.1,2.6,1.1,4.8,2.6,4.8c1.5,0.1,2.9-2,3-4.6
			C966.2,199.5,965.1,197.3,963.5,197.3z"/>
		<path class="st7" d="M932.4,196.4c-1.5-0.1-2.9,2-3,4.6c-0.1,2.6,1.1,4.8,2.6,4.8c1.5,0.1,2.9-2,3-4.6
			C935.1,198.6,933.9,196.4,932.4,196.4z"/>
		<path class="st7" d="M990.7,231.2c7.3,23.5-14.9,39.7-42.2,44.4c-20.5,3.5-28.6-8.9-26.4-20.1c-3.1-2.2-9.4-10.6-9-17.8
			c0.8-12.7,3.7-10.9,5.9-15.2c-1.2-7.6,0.6-10.8,2.1-14.7c-0.2,2.9,0.3,13.5,1.8,18.8c0,0-1.2-14.9,13.2-9.2
			c1.6,3.5,10,4.4,15.9-0.9c18.4-13.6,20,6.5,21.3,8.9c11.1-1.2,14.4-26.1,14.4-26.1c0,0,4.2,5.7,4.8,1.9
			C987.9,219.4,987.2,219.8,990.7,231.2z M945.6,227.7c-1.4,0.3-2.7,0.5-3.9,0.7c-5.3,1.9-14.6,6.3-3.9,10.9
			c11.3,2.4,25.8-0.5,29.9-8C967.6,231.3,957.9,225.4,945.6,227.7z"/>
		<path class="st7" d="M984.8,212.6c0,0,1.2-8.9,1.9-16.9c1.3-16.2-4.2-25.8-20.6-19.5c-27.1,10.4-38.8,0.4-38.8,0.4l-4.3,18.9
			c0,0-5.3-15.8,1.3-23c-11.7-19.3,2.5-37.8,20.7-37.6c13.7,0.2,21.1,20.1,21.1,20.1s44.5-7.7,34.5,16.7c11.1,5.4,7.8,7.3,5.8,16
			C1002.7,204.1,1001.6,203.5,984.8,212.6z"/>
		<path class="st4" d="M1013,190.8l0.1,0l-5.3,14.6l-0.1-0.3c-0.3,1-0.6,2-1,3c-1.2-2.2-4.3-4.1-8.5-3c7.7-10.8,0.1-29.2-18.6-42.4
			c-5.8-4.1-11.8-7.1-17.6-9c-0.4-2.4-1.2-4.8-2.4-7.2c-3.1-6.1-8.8-10-14.4-11.2c5.3-2,12.1-2.1,19.5-0.5c7-1.9,16.2-4.3,23.1-5.8
			c11.9-2.4,27.7,8.4,22.8,40.2C1014.5,177.1,1015.6,184.8,1013,190.8z"/>
		<path class="st7" d="M1010.4,147.7c-5.5-5.2-17.4-11.6-42.8-12.2c7.2,2,14.8,5.6,22.1,10.7c9.5,6.7,16.7,14.9,20.8,23
			C1011.8,160.5,1011.6,153.4,1010.4,147.7z"/>
	</g>
	<g id="Left_hand_2_">
		<path class="st4" d="M1125,396.8l-0.1,0c-4.7,13.8-17.9,23.6-33.1,23.4c-8.6-0.1-16.4-3.5-22.2-8.9c-8.3-6.7-40-34.6-35.3-67.3
			c1.8-12.2,9.3-17.2,9.7-17.6l-7.1-23.6l0.1,0c0,0,0-0.1,0-0.1c-0.9-3,12.5-9.6,29.8-14.9c17.3-5.3,32-7.1,32.9-4.2
			c0.1,0.2,0,0.4,0,0.7l6.6,22.4c0.1,0.1,0.3,0.2,0.3,0.3c1.1,0.1,12.2,1.3,17.6,11.5C1138,345.2,1127.6,387.6,1125,396.8z"/>
		<path class="st5" d="M1034.8,360.9c-1.1-5.4-1.5-11.1-0.6-17c1.8-12.2,9.3-17.2,9.7-17.6l-7-23.7"/>
		<path class="st8" d="M1106.6,307.3c0.9,3-12.5,9.6-29.8,14.9c-17.3,5.3-32,7.1-32.9,4.2"/>
		<path class="st7" d="M1066.7,287.8c17.3-5.3,32-7.1,32.9-4.2c0.9,3-12.5,9.6-29.8,14.9c-17.3,5.3-32,7.1-32.9,4.2
			S1049.4,293,1066.7,287.8z"/>
		<path class="st15" d="M1093.5,283.7c0.7,2.4-10.2,7.9-24.4,12.2c-14.1,4.3-26.1,5.8-26.9,3.4l0,0l-8.9-57.7l0.2-0.1
			c-0.1-0.8-0.1-1.6-0.1-2.5c0.4-11.4,9.9-20.6,21.4-20.4c7.5,0.1,13.8,4.2,17.3,10.2l0.4-0.1L1093.5,283.7L1093.5,283.7
			C1093.5,283.6,1093.5,283.7,1093.5,283.7z"/>
		<path class="st15" d="M1124.6,174.9l-35.7,56.5c-0.5,0.8-7.8,11.5-8.5,12.1c-0.2,0.2-0.3,0.3-0.5,0.5c-5.1,7.8-14,12.9-24,12.8
			c-11.6-0.2-21.3-7.5-25.1-17.7c-1.2-2.9-2.7-8.1-2.1-14.9c0.8-8.9,3.9-37.3,6-51.1l0.3-5c0.1-2.8,2.4-5,5.2-4.9
			c2.6,0.1,4.6,2.1,4.8,4.6c0,0,2,12.8,3,23.3c0.2,2.5,2.2,2.5,2.8,2.5c0.7-0.7,1.3-1.4,1.8-2.1l27.7-52.5c1.3-2.5,4.3-3.5,6.8-2.2
			c2.3,1.2,3.2,3.9,2.3,6.3l-14.1,35.4l25.5-39.7c1.5-2.4,4.6-3.1,7-1.6c2.2,1.4,2.9,4.2,1.7,6.5l-1.3,2.5c1.7-1.4,4.1-1.7,6-0.5
			c2.2,1.4,2.9,4.2,1.7,6.5l-22.9,45.7c0,0.1,0,0.1,0,0.1s9.6-10.9,17.5-20.1l6.3-8c0.8-1.1,2-1.7,3.2-1.8c0.8-0.3,1.4-0.2,1.8,0.2
			c0.5,0.2,1,0.4,1.5,0.8C1125.4,170.2,1125.8,172.9,1124.6,174.9z"/>
		<path class="st17" d="M1092.3,205.2c0,0-10.2-15.6-26.4-19.8"/>
		<path class="st17" d="M1103.7,152.3l-22.5,39.5"/>
		<path class="st17" d="M1046.3,197.8c0,0,17.4,12.7,10.2,32.7"/>
	</g>
</g>
<g id="Character_3">
	<g id="Right_hand_2_">
		<path class="st18" d="M544.3,179.7c-9.1,0.5-17.3-3.4-22.7-10c-0.1,0-0.3-0.1-0.4-0.1l-44.7-64.5c-1.3-1.9-0.9-4.5,0.8-6
			c0.4-0.4,0.9-0.6,1.4-0.8c0.4-0.4,1-0.5,1.8-0.3c1.2,0.1,2.3,0.6,3.2,1.6l6.3,7.5c7.9,8.6,17.4,18.7,17.4,18.7s0,0,0-0.1
			l-23.3-43.2c-1.1-2.2-0.5-4.9,1.5-6.3c1.8-1.2,4.2-1.1,5.8,0.2l-1.3-2.4c-1.1-2.2-0.5-4.9,1.5-6.3c2.2-1.5,5.2-1,6.8,1.2
			l25.6,37.2l-14.4-33.6c-1-2.2-0.1-4.9,2.1-6.1c2.3-1.3,5.3-0.5,6.6,1.8l28,49.5c0.5,0.7,1.1,1.4,1.8,2c0.6,0,2.5-0.1,2.7-2.5
			c0.7-10.2,2.3-22.6,2.3-22.6c0.1-2.4,2-4.5,4.5-4.6c2.7-0.2,5,1.9,5.2,4.5l0.4,4.8c2.4,13.2,6.1,40.5,7.1,49
			c0,0.1-0.1,0.2-0.1,0.4c0.1,0.6,0.1,1.1,0.2,1.7C570.9,165.8,559.4,178.8,544.3,179.7z"/>
		<path class="st17" d="M508.2,133.1c0,0,9.4-15.4,24.9-20.2"/>
		<path class="st17" d="M552.3,124c0,0-16.5,12.9-9,32"/>
		<path class="st17" d="M495.9,82.4l22.7,37.2"/>
		<path class="st10" d="M650.2,361.2c0,26.1-21.2,47.3-47.3,47.3c-9.4,0-18.2-2.8-25.5-7.5l-50.1-25.7l59.4-74.4l37.6,17.9l-0.1,0.2
			C639.6,326.8,650.2,342.7,650.2,361.2z"/>
		<path class="st7" d="M586.8,300.9c5.9,4.9-3,25.3-20,45.6c-16.9,20.3-35.4,32.7-41.3,27.8c-5.9-4.9,3-25.3,20-45.6
			C562.4,308.4,580.9,296,586.8,300.9z"/>
		<path class="st18" d="M572.7,330.7c-10.7,12.9-22.4,20.8-26.5,18.2l-0.2,0.3l-53.3-54.2l0.4-0.3c-3.2-4.2-5.2-9.3-5.5-14.9
			c-0.9-15,10.6-27.9,25.6-28.8c8-0.5,15.4,2.6,20.7,7.9l0,0l52.1,42.4l-0.2,0.2C589.3,304.6,583.5,317.7,572.7,330.7z"/>
		<path class="st18" d="M564.5,171.3l-22.8,109.6c-1.4,13-12,23.5-25.5,24.3c-15,0.9-27.9-10.6-28.8-25.6c-0.2-3.7,0.3-7.4,1.5-10.7
			l-0.4-0.1l39.3-107.9c1.7-8.3,8.8-14.8,17.6-15.3c10.6-0.6,19.6,7.5,20.2,18C565.8,166.3,565.4,168.9,564.5,171.3z"/>
	</g>
	<g id="Body_2_">
		<path class="st10" d="M750.2,434c-0.6,5.2-1.2,10.4-1.7,15.5c-1.4,13.8-23,17.1-23,17.1s-12-5.6-44.1-6.9
			c-35.1-1.5-59.1,3.6-69.5,5.9c-31-4.1-31-26.6-22.8-60.3c-12.6-8.5-20.9-22.9-20.9-39.3c0-26.1,21.2-47.3,47.3-47.3
			c7,0,13.6,1.5,19.5,4.2l48.1,17.7h52c2.2-0.3,4.4-0.5,6.7-0.5c26.1,0,47.3,21.2,47.3,47.3C789.1,410.7,772.3,430.1,750.2,434z"/>
		<path class="st6" d="M681.6,365.2c14.9,1.4,25.5,12.6,23.7,24.9c-1.8,12.3-15.4,21.2-30.3,19.8c-14.9-1.4-25.5-12.6-23.7-24.9
			C653.1,372.6,666.7,363.8,681.6,365.2z"/>
		<g id="Neck_1_">
			<path class="st18" d="M727.8,352.3c-0.4,6.8-20,10.6-43.7,8.6c-23.7-2-42.6-9.2-42.2-15.9c0.2-3.5,5.4-6.1,13.6-7.7l-1-0.1
				l8.1-55.8h41.9l8.6,60.3C722.3,344.6,728.1,348.5,727.8,352.3z"/>
			<path class="st7" d="M668.8,281.3h35.7l0.7,5c-2.4,12.3-11.5,37.2-47.3,42.8c-0.8,0.1-1.5,0.2-2.3,0.3l6.3-43.3
				C664.1,284.3,666.4,282.7,668.8,281.3z"/>
		</g>
	</g>
	<g id="Left_hand_1_">
		<path class="st18" d="M859.1,453.4c0,17.2-14,31.2-31.2,31.2c-5,0-9.8-1.2-14-3.3l0,0l-37-23.4c-11.1-3.3-19.2-13.5-19.2-25.7
			c0-14.8,12-26.8,26.8-26.8c6.9,0,13.2,2.7,18,7l0.1-0.1l31.2,10.5C848.2,425.5,859.1,438.1,859.1,453.4z"/>
		<path class="st7" d="M806.8,370.5L800.2,475c0,0.1,0,0.2,0,0.3c0,2.6-11.7,4.7-26.2,4.7s-26.2-2.1-26.2-4.7c0-0.1,0-0.3,0.1-0.4
			l-6.6-104.3H806.8z"/>
		<path class="st18" d="M806.1,437.8c0,0,14.9,3.4,9.4,13.1c-5.5,9.8-17.6,16.8-21.8,14.6c-3.7-1.9-3.5-7.1,1.1-12.7
			c5.4-6.5,12-13.1,12-13.1L806.1,437.8z"/>
		<path class="st18" d="M749.3,406.1c-1,9.8-4,16.1-4,16.1l0.6,20c0,0-10.5-10.3-15-22.8c-1-2.7,2.7-16.6,8.1-24.3
			C743.3,388.9,750.3,395.8,749.3,406.1z"/>
		<path class="st6" d="M810.5,372.4c2.6,1.7,3.7,3.3,3.7,4.1c0,2.4-18,4.3-40.2,4.3c-22.2,0-40.2-1.9-40.2-4.3
			c0-0.9,0.9-2.6,3.6-4.5c0-0.1,0.1-0.2,0.1-0.2l-0.2-8c-0.1-0.1,0,0.1,0,0c0-2.2,16.4-3.9,36.6-3.9c20.2,0,36.6,1.8,36.6,3.9
			C810.6,363.9,810.6,372.3,810.5,372.4z"/>
		<path class="st4" d="M761.5,445.3c3.8,0.3,8.1,0.5,12.6,0.5c15.7,0,28.4-2.3,28.4-5.1c0-0.3-0.2-0.6-0.4-0.9l2.2-32.3
			c-2.7,2.2-15.1,3.9-30.1,3.9c-4.5,0-8.7-0.1-12.6-0.4V445.3z"/>
		<path class="st18" d="M816.5,404.1c1.5,3,2.2,6.8,0.6,10.8c-0.7,1.6-1.7,3.4-3.1,5.3c3.7,1.6,7.5,4.7,5.1,10.5
			c-4.3,10.3-21.8,25.5-27.2,23c-3.8-1.8-4.3-6.7-0.4-12.7c0.2-0.4,0.5-0.7,0.7-1.1c-2,0.9-3.6,1.2-4.5,0.5
			c-3.7-2.6-2.8-8.2,1.8-15.2c1-1.5,2.3-3.2,3.8-4.9c-4.5,1.9-8.1,2.7-9.4,1.4c-3.1-3.2-1-8.5,5-14.5c6-6,16.3-11.9,16.3-11.9
			l0.6-8.2c0,0,18.7,5.7,12.4,15C817.7,402.7,817.1,403.4,816.5,404.1z"/>
		<path class="st17" d="M744.3,392.4c3.2,1.2,5.7,7.1,5,13.7c-1.4,13-8,20.7-7.4,20.2"/>
		<path class="st17" d="M818.8,401.8c-18.7,16.1-31.9,23-35,19.8c-3.1-3.2-0.9-9,5.1-15"/>
		<path class="st17" d="M816.2,405.3c5.3,5.6-3.7,16.8-4.4,17.7c-7.8,9.5-19.9,19.1-24.2,17.4c-4.2-1.7-3.4-9.1,4.8-19.5"/>
		<path class="st17" d="M814,420.2c3.9,1.6,7.5,4.5,5.1,10.5c-4.3,10.3-21.8,25.5-27.2,23c-3.8-1.8-4.3-6.7-0.4-12.7"/>
		<path class="st17" d="M812.7,440.2c3.6,2,6,5.1,2.8,10.7c-5.5,9.8-17.6,16.8-21.8,14.6c-3.7-1.9-3.6-6.2,0.9-11.8"/>
		<path class="st19" d="M745.6,366c0-1.6,12.3-2.9,27.5-2.9s27.5,1.3,27.5,2.9"/>
	</g>
	<g id="Head_2_">
		<path class="st7" d="M719,198.8c0,0,16.1-17.9,1.1-31.9c-8-7.6-26.1-4.5-26.1-4.5c-2.6-12.6-30.3-51.7-71.8-25
			c-50.2,32.3-24.1,96-12.4,117.1c0,0-20.2,21-7.2,40.5c13.6,20.3,50.7,17.1,89-20.7c22.3-22-1-0.6-1-0.6L719,198.8z"/>
		<path class="st18" d="M654.7,306.6c15.6,10.9,43.5-4.1,51-27.3c15.3,6.1,24.6-17.5,13.6-23.7c-4.3-2.4-8-0.3-10.5,2.3
			c8.1-18.9-5.9-54.3-5.9-54.3c-18.4,0.2-28.9,12.6-28.9,12.5l-4.8-18c-21.9-2.1-30.7,19.8-29.3,32.6c0.2,1.7,0.3,3.3,0.1,5
			c-0.4,5.2-1,11.5-2.6,21.6C632.9,283.6,644.6,299.6,654.7,306.6z M673.9,216.1"/>
		<path class="st20" d="M677.3,276.8c0,0-7.5,13.9-22.4,9.1"/>
		<path class="st21" d="M654.5,285.2c0,0,0.2-1.8,2.6-2.5c1.6-0.5,3.5,0.5,3.5,0.5c0,0,3.9-8.4,12.9-2
			C672.5,284.1,659.8,290,654.5,285.2z"/>
		<path class="st17" d="M654,242.1c0,0-8.6-5-14.8,0.7"/>
		<path class="st17" d="M646.6,250.6l-5.8-2.6"/>
		<path class="st17" d="M679.4,250l-6.8-1.9"/>
		<path class="st17" d="M691.6,243.7c0.3,1.2-10.9-11.6-25.5-1.5"/>
		<path class="st17" d="M658.2,251.1c0,0,2.4,7.1-3.5,13.8c-5.7,6.5-2.2,14.7,6.6,11.9"/>
		<path class="st17" d="M709.2,274.2c4.4,1.2,9.7-5.4,3.8-10.8"/>
		<path class="st17" d="M706.3,267.9l10.6-7.8"/>
		<path class="st7" d="M678.7,249.3c-1.5,0-2.7,2.1-2.7,4.7c0.1,2.6,1.4,4.7,2.9,4.7c1.5,0,2.7-2.1,2.7-4.7
			C681.6,251.4,680.3,249.3,678.7,249.3z"/>
		<path class="st7" d="M645.6,249.5c-1.5,0-2.7,2.1-2.7,4.7c0.1,2.6,1.4,4.7,2.9,4.7c1.5,0,2.7-2.1,2.7-4.7
			C648.5,251.6,647.2,249.5,645.6,249.5z"/>
		<path class="st7" d="M717.9,255.7c-0.6-0.1-1.3-0.2-1.9-0.2c-3.4,0-6.4,1.7-8.3,4.2c1.5-21.4-4.4-58.9-30.4-39.2
			c-22.5,17-36.7-3.9-36.7-3.9c-0.1-5.2,9-33.9,45.8-41.4C728.3,166.7,745.4,224,717.9,255.7z"/>
		<path class="st22" d="M716.4,182.6c0,0,8.9,24-10.2,52.5"/>
		<path class="st22" d="M707.7,177.8c0,0,1,20.1-8.8,41"/>
		<path class="st22" d="M722.1,188.7C722.1,188.7,722.1,188.7,722.1,188.7c1.7,2.4,2.8,5.1,3.3,7.9c2.2,12.5,2.3,34.7-17.5,56"/>
	</g>
	<g id="Left_leg_2_">
		<path class="st7" d="M790.1,1019.3c-15,6.7-25.4,15.8-23.2,20.3c2.2,4.5,16.2,2.8,31.3-3.8c15-6.7,28-16.7,25.7-21.2
			C821.6,1010,805.1,1012.7,790.1,1019.3z"/>
		<path class="st18" d="M890.1,1033.3l-70.4-3.8l-19-45.7l-34.9,47.8c0,0,7,39.5,12.9,46.8C784.6,1085.9,890.1,1033.3,890.1,1033.3z
			"/>
		<path class="st6" d="M932.4,1026.1c0,0-8.5-4-24.5-2.5c-6.7,0.6-52.2,7.4-52.2,7.4s-55.8,17.6-72.4,27.2
			c-9.8,5.7-8.9,10.9-8.9,10.9l3.6,21.4c0,0,89.4-32.8,112.6-44C913.8,1035.3,932.4,1026.1,932.4,1026.1z"/>
		<path class="st7" d="M919.3,1026.1c-5.2,0.9-25.6,3.8-58.5,22c-34.2,19-63.9,30.9-71.1,34.2c-9.8,4.4-22,16.7,6.9,8.3
			c36.6-10.6,107.9-38.7,124.7-48.4C934.7,1034.4,940.4,1022.5,919.3,1026.1z"/>
		<path class="st7" d="M813.2,1013.8c-9.7,5.1-38.4,22-41.8,44.2c-3.2-12.7-5.6-26.4-5.6-26.4l17.6-24.1c7.5-0.6,16.9,0.3,28.6,3.4
			L813.2,1013.8z"/>
		<path class="st4" d="M823.3,1013.8c-3.7-3.5-19.1-0.7-33.2,5.5c-13.9,6.1-23.7,14.3-23.5,19.1c0,0.2,0,0.4,0.1,0.6
			c2.9,8.2-15.8-20.1-44-151.7c-24.9-116.3-45.5-260.7-45.5-260.7S650,541,670,510.5c35.7-54.4,86-8.3,96.4,58.7
			c7.9,50.8,3.6,122,17.9,245.7c3.1,27,25.7,81.8,35.5,124.9C828.6,978.3,825.3,1004.1,823.3,1013.8z M767.1,1040.1
			c0,0.2,0.1,0.4,0.1,0.4s-0.1-0.2-0.2-0.6C767,1039.9,767,1040,767.1,1040.1z"/>
		<path class="st8" d="M697.6,586.2c0,0,38.8,278.5,87.5,433.3"/>
		<path class="st7" d="M676.2,623.8l18.4-49.3c0,0,26.1,60.5-8.9,109c-5.4-34.4-8.6-56.9-8.6-56.9S676.8,625.6,676.2,623.8z"/>
	</g>
	<g id="Right_leg_2_">
		<path class="st7" d="M651.1,1075.6c1.9,11,1.7,15.1-1.7,19.6c-5.7,7.5-18.1,12-42.8,11.2c-18.2-0.6-22.6-9.6-23.9-16.4
			c0,0,0.2-0.3,0.5-1l-0.3,0.1v-7.4h4.1c5.5-10.4,15.6-29.2,26.4-47.8c20.8-6.3,21.8-26.8,33.6,1.1c7.5,17.8,4.7,22.1,2.9,24.8
			C648.7,1061.6,649.7,1067,651.1,1075.6z"/>
		<path class="st6" d="M606.6,1097.9c24.7,0.9,37.1-3.6,42.8-11.2c3.4-4.4,3.6-8.6,1.7-19.6c-1.4-8.6-2.4-14-1.1-15.8
			c1.9-2.6,4.7-7-2.9-24.8c-11.8-27.9-12.8-7.4-33.6-1.1c-16.2,27.9-30.8,56.1-30.8,56.1C584,1088.4,588.4,1097.3,606.6,1097.9z"/>
		<path class="st18" d="M650.6,987.1c0.4,5.1-8.7,49.6-9,54.8c-1.6,24.6-8.7,36.9-44.7,30c-8.8-1.7,10.5-51.7,6.9-92.5
			c-2.3-33.3-8.2-115.6-8.2-115.6S641.3,848.6,650.6,987.1z"/>
		<path class="st7" d="M642.9,1033.4c-13.7-12.9-40.8-12.1-40.8-12.1c-0.1-0.2-0.3-0.4-0.4-0.6c0.9-6.2,1.7-12.5,2.1-18.9
			c11.5-3.6,34.9,2,44,4.4C646.2,1015.4,644.2,1026,642.9,1033.4z"/>
		<path class="st4" d="M580.4,931.2c-4.3,65.5,20.5,87,20.5,87l45.5,0.8c0,0,15.2-8.5,15.5-24.4c1.1-47.8-11.5-45.4-11.3-79.1
			c0.1-28.4,2.1-76.1,8.2-134.4c10-94.2,43.5-244.1,43.5-244.1s0.8-37.5-36.2-47.1c-40.1-10.4-102.1-14-86.9,179.3
			C588.3,783.3,581,922.4,580.4,931.2z"/>
		<path class="st8" d="M635.1,495.6c-23.9,17.5-42.6,63.8-39.5,173.7c3.2,114-11.1,253.1-12.1,261.9c-7.6,65.5,18.4,87.3,18.4,87.3"
			/>
	</g>
	<g id="Pelvis">
		<path class="st4" d="M728.4,494c7,7.9,12,14.3,15.7,21.9c-25.5,31.8-134.7,29.5-151.4,12.4c7.3-13.6,13.6-24.2,18.4-31.7v-29.3
			l0,0c0,0,0-0.1,0-0.1c0-5.1,25.8-9.1,57.7-9.1c31.9,0,57.7,4.1,57.7,9.1c0,0.3-0.1,0.6-0.2,0.8L728.4,494z"/>
		<path class="st5" d="M611.1,492.2c0-5.1,25.8-9.1,57.7-9.1c31.9,0,59.6,5.9,59.6,10.9"/>
		<path class="st5" d="M684.6,459.7l10,114.8c0,0,22.1-24.2,7.6-88.8"/>
		<path class="st5" d="M721.6,490.1c0,0,8,33.5,38.6,53.5"/>
		<path class="st8" d="M663.9,484.6c0,0,5.8,61.6-59.6,71.6"/>
	</g>
</g>
<g id="Character_2">
	<path class="st7" d="M1082.6,670.8c0,0-33.3,63.3,180.4-8.3C1383.8,622.1,1114.1,580.8,1082.6,670.8z"/>
	<g id="Left_hand_2_1_">
		<path class="st23" d="M1269.3,436.3c0.1,0.7,0.1,1.3,0.1,2c0.8,20.5-15.3,37.8-36.1,38.7c-20.8,0.8-38-15.2-39.1-35.7
			c-1.6-27.6,5.2-67.2,19.6-81.7c-4.8-5.5-7.9-12.5-8.2-20.4c-0.7-18.2,13.6-33.5,32-34.2c18.4-0.7,33.9,13.4,34.6,31.6
			c0,0.4,0,0.7,0,1.1c0,0,0,0,0,0s1.4,50.1,24,86.3C1300.3,430.5,1287.5,435,1269.3,436.3z"/>
		<path class="st23" d="M1318.9,478.1c-9.9,25.3-37.2,38.5-60.9,29.5c-13.8-5.3-23.4-16.9-27.1-30.7c-19.7-0.5-35.9-16-36.7-35.7
			c-0.8-20.5,15.3-37.8,36.1-38.7c12.4-0.5,23.7,5,30.9,13.9c11.9-5.3,25.3-6.3,36.6-1.1C1318.4,424.8,1328.8,452.8,1318.9,478.1z"
			/>
	</g>
	<g id="Left_leg_1_">
		<path class="st24" d="M1328.7,1069.9c-18.6-35.9-23.7-47.7-29.9-50.6c-10.7-60.9-28.8-146-37.1-187.9c-9-45.6,2.4-51.2-9.5-86
			c-46.6-136.7-50-176-50-176s25.6-20.2,27.3-20.5c15.7-1,2.2-31,24.2-28.5c-4.5-10.5,31.1,26.4,39.8,99.7
			c18.4,153.7,50.2,405.2,50.2,405.2s8.1,19.8,19.9,34.1c6.6,8,13.2,14.6,18.5,19.5C1350.6,1084.5,1333.8,1079.7,1328.7,1069.9z"/>
		<path class="st7" d="M1303.7,703.3c-31.2,2.4-61.8-12.9-71.2-18.1c-1.5-4.8-2.9-9.4-4.3-13.8c3.7-24.4,55.2-11.8,70.7-7.4
			C1300.4,676.8,1302.1,689.9,1303.7,703.3z"/>
		<path class="st7" d="M1359.6,1111.3c-24.8-2.2-32.7-7.2-42.5-13.9c-10.7-7.5-4.3-20.8-14.3-24.4c-10.3-3.7-11.4-8.1-11.4-8.1
			c-2.4-14.1,3.5-11.8,10.1-20.8c56.9,52.3,60.7,17.4,63.5,29c0,0,27.6,8.3,39.2,27.5c1.9,3.2,2.5,5,1.8,8.1
			C1409.1,1108.5,1394,1114.3,1359.6,1111.3z"/>
		<path class="st25" d="M1359.6,1104.8c-24.8-2.2-32.7-7.2-42.5-13.9c-10.7-7.5-4.3-20.8-14.3-24.4c-10.3-3.7-11.4-8.1-11.4-8.1
			c-2.4-14.1,0.7-33.7,7.3-42.7c56.9,52.3,63.5,39.3,66.4,50.9c0,0,34,7.9,41,35.6C1409.1,1102.1,1394,1107.8,1359.6,1104.8z"/>
		<path class="st12" d="M1328.7,1069.9c-18.6-35.9-23.7-47.7-29.9-50.6c-5.7-32.4-13.5-71.6-20.8-107.5c3,2.3,13.2,4.1,25.5,4.1
			c13,0,23.8-1.9,25.9-4.5c8.3,66.3,14.3,113.9,14.3,113.9s8.1,19.8,19.9,34.1c6.6,8,13.2,14.6,18.5,19.5
			C1350.6,1084.5,1333.8,1079.7,1328.7,1069.9z"/>
		<path class="st25" d="M1354.5,1046.2c2.7,4.5,5.8,9.1,9.2,13.2c0.2,0.2,0.4,0.5,0.6,0.7c-7.1-1.5-34.5-6.1-39.2,12.9
			c-0.2,0.8-0.4,1.5-0.6,2.1c-0.3-0.4-0.5-0.7-0.7-1.1c-2.1-4-3.9-7.8-5.6-11.4c0.2-0.9,0.4-1.9,0.7-2.9
			C1323,1043.2,1344.3,1044.6,1354.5,1046.2z"/>
		<path class="st26" d="M1280.1,928c3,2.3,13.2,4.1,25.5,4.1c13,0,23.8-1.9,25.9-4.5"/>
	</g>
	<g id="Right_leg_1_">
		<path class="st24" d="M1189.2,738.3c-1.6,34.9,6.2,29.5,10.6,75.1c4.2,43.5,8.1,148.4,8.6,207.9c-1.7,9.2-5.1,13-8.3,20.6
			c-12.2,29.6-13.1,35.3-55.4,33.3c3.7-11.4,23.2-49.4,20.1-66.8c-18.2-163.8-23.2-183-23-230.3c0.2-55.4-24.5-117.8-33.4-165.6
			c-9.7-52.7,21.6-118.9,19.8-105.4c21.3-2.4,12.5,59.2,28.4,60.1c1.8,0.3,35.8-2,35.8-2S1195.6,601.6,1189.2,738.3z"/>
		<path class="st7" d="M1115,641.1c1.4-1.7,3-3.4,4.8-5.2c13.6-13.6,57.5-22.1,72.7,13.9c-0.2,6.1-0.3,12.5-0.6,19.4
			c-23.7-6.1-51.2-0.1-68.2,5.1C1120.7,662.9,1117.7,651.8,1115,641.1z"/>
		<path class="st7" d="M1144.5,1109.7c21.3,1.3,47.4-5.6,53.4-10.5c3.5-2.9,10.2-10.8,8.5-21c-1.4-8.1,4.8-8.3,7.2-10.7
			c3.9-4.1,2.7-31.3-6.1-42.3c-6.8-0.9-27.2,22-38.5,32.9c-28.2,12-33,25-33,25C1132.5,1091,1132.2,1108.9,1144.5,1109.7z"/>
		<path class="st25" d="M1144.5,1103.7c21.3,1.3,47.4-7.6,53.3-12.5c3.5-2.9,10.2-8.7,8.5-18.9c-1.4-8.1,4.8-8.3,7.2-10.7
			c3.9-4.1,2.7-31.3-6.1-42.3c-6.8-0.9-27.2,22-38.5,32.9c-28.2,12-33,25-33,25C1132.5,1085,1132.2,1102.9,1144.5,1103.7z"/>
		<path class="st12" d="M1200.1,1041.9c-12.2,29.6-13.1,35.3-55.4,33.3c3.7-11.4,23.2-49.4,20.1-66.8c-4.5-40.4-8.2-72-11.2-97.5
			c2.2,2.7,12.9,4.8,25.7,4.8c13,0,23.7-2.1,25.8-4.9h0.3c1.6,39.2,2.7,80.6,2.9,110.4C1206.7,1030.5,1203.3,1034.3,1200.1,1041.9z"
			/>
		<path class="st26" d="M1154.7,928c2.2,2.7,12.9,4.8,25.7,4.8c13,0,23.7-2.1,25.8-4.9h0.3"/>
		<path class="st25" d="M1193.2,1067.7c-5.5-21.9-41-12.5-41-12.5l6.2-13.3c0,0,35.5-9.4,41,12.5
			C1204.9,1076.4,1198.7,1089.6,1193.2,1067.7z"/>
	</g>
	<path id="Right_hand_2" class="st23" d="M1161.3,357.1c-12.3,21.8-38.2,69.9-38.2,69.9s-3.4,1.8-8.9,4.5c1.7,4,2.7,8.3,2.9,12.8
		c0.8,20.5-15.3,37.8-36.1,38.7c-20.8,0.8-38.3-15.2-39.1-35.7c-0.1-2.7,0.1-5.3,0.5-7.8c3.3-41,64.3-120.5,64.3-120.5
		s0.1,0,0.3,0.1c5.7-8.4,15.3-14.1,26.3-14.6c18.4-0.7,33.9,13.4,34.6,31.6C1168.2,343.9,1165.7,351.3,1161.3,357.1z"/>
	<g id="Body_1_">
		<path class="st23" d="M1241.9,370.7c-4.5,31.4-26.4,69.2-105.1,70.7c-17.3,0.3-13.9-40-8.5-71.7c-14.9-2.8-26.4-15.4-27-31
			c-0.7-18.2,13.6-33.5,32-34.2c1.2,0,2.4,0,3.6,0.1l96.2,0.9c1.4-0.2,2.9-0.4,4.4-0.5c18.4-0.7,33.9,13.4,34.6,31.6
			C1272.9,354.2,1259.5,369.1,1241.9,370.7z"/>
		<path class="st25" d="M1129.3,488.1l-0.6-15.5c0,0,0.2-2.4,0.2-3.6c-0.1-3.6,8.3-7.1,21.5-9.7c0-0.6-5.5-95.2-5.5-95.2
			c0,0,4.2-2.3,13.6-4.5c-3.4-21.7-9.6-40.6-17-53.2l17.1,0.1c7,12.2,12.9,29.9,16.2,50.3c9.6-1.1,21.6-1.8,36.5-1.4
			c9.4,0.3,17,0.8,23.2,1.4c-3.1-19.9-8.5-37.4-15.1-50l17.1,0.1c6.8,13.3,12.3,31.8,15.2,52.7c8.1,2.2,8.6,4.3,8.6,4.3
			s5.3,14.8,4.3,25.4c-2.5,25.5-12,59.5-16.5,74.6l0.8,20c1,0.9,1.9,1.7,2.8,2.7c40,41.4,82.6,177.7,82.9,177.7
			c0,0-30.7,37.5-113.1,12.9c-75.3-22.5-133.2-27.6-141.1,0.6c11.1-45,11.5-82,21.8-139.5c6.9-38.4,23.9-48.7,23.9-48.7
			S1127.2,489.1,1129.3,488.1z"/>
		<path class="st24" d="M1169.3,368.5c2.1-0.1,4,3,4.2,6.9c0.2,3.9-1.5,7.1-3.6,7.2c-2.1,0.1-4-3-4.2-6.9S1167.2,368.6,1169.3,368.5
			z"/>
		<path class="st24" d="M1243.6,363.7c2.1-0.1,4,3,4.2,6.9c0.2,3.9-1.5,7.1-3.6,7.2c-2.1,0.1-4-3-4.2-6.9
			C1239.8,367,1241.4,363.8,1243.6,363.7z"/>
		<path class="st17" d="M1130.5,486.9c0-6.3,26.7-11.4,59.7-11.4c33,0,59.7,5.1,59.7,11.4"/>
	</g>
	<g id="Left_hand">
		<path class="st7" d="M1385.7,321.3l112.9-4.5l-85.8,121.6l-112.5,4.2L1385.7,321.3z"/>
		<path class="st27" d="M1416.8,368c2.7-0.4,2.3,3.7-0.8,9.1c-3.1,5.4-7.8,10.1-10.5,10.5c-2.7,0.4-2.3-3.7,0.8-9.1
			C1409.4,373.1,1414.1,368.4,1416.8,368z"/>
		<path class="st7" d="M1198.5,441.7l162.6-6.4l0,5l-162.6,6.4L1198.5,441.7z"/>
		<path class="st7" d="M1279.6,439.8c12-0.3,21.8,11.9,21.9,27.1c0.1,15.3-9.5,27.8-21.5,28.1c-12,0.3-21.8-11.9-21.9-27.1
			C1258,452.6,1267.6,440,1279.6,439.8z"/>
		<path class="st24" d="M1420.5,410c-11.6,17.2-25.7,42.7-35.5,54.3c-4.1,4.8-9.7,9.1-16,8.7l-33.6,1.3c0,0-13.7,6.5-50.4,16.7
			c-1.6,0.6-3.3,0.9-5,1c-10.6,0.2-19.4-10.6-19.5-24.1c-0.1-13.5,8.4-24.7,19-25c0.7,0,1.3,0,2,0.1c7.6-0.3,34.8-1.3,80-3.1
			c6.3-4.3,13.5-13.6,19.3-20.7c7.3-9,13-3.6,9.4,1.6c-0.2,0.2-0.3,0.4-0.5,0.6c0.2-0.2,0.3-0.4,0.5-0.6c2.9-3.9,5.4-7.2,9.5-12.4
			c3.1-3.9,6.7-4.9,11.5-2.3C1417.3,402.4,1422.1,405.4,1420.5,410z"/>
		<path class="st28" d="M1381.3,455.7c7.7-10.8,27.6-41.6,28.5-42.7c2.6-4.3,0.3-8.9-2.2-8.9"/>
		<path class="st28" d="M1369.7,453.8c5.9-9,21.3-32.6,22-33.6c1.9-2.4,1.5-5.8-0.9-7.6c-2.2-1.6-5.2-1.3-7.2,0.6l0,0"/>
	</g>
	<g id="Right_hand_1_">
		<path class="st23" d="M1150,464.3l-6,0.2c-1.7,8.9-5.2,17.6-11.9,22.8c-25.3,19.6-58.4,0.2-71.9-9.5
			c-10.6-6.2-17.9-17.4-18.4-30.5c-0.6-15.2,8.1-28.7,21.2-35l0-0.3c0,0,47.1-20.1,65.9-7.9c2.2,1.4,4.1,3.2,5.8,5.2l13.9-0.6
			L1150,464.3z"/>
		<path class="st29" d="M1132,464.8c-6.8,0.3-12.4-11.9-12.5-27.1c-0.1-14.2,4.7-26.1,10.9-27.9c0.4-0.1,3.4-0.6,3.8-0.7"/>
		<path class="st7" d="M1150.3,409c6.8-0.3,12.4,11.9,12.5,27.2c0.1,15.3-5.4,27.9-12.2,28.1c-6.8,0.3-12.4-11.9-12.5-27.2
			C1138,421.8,1143.5,409.2,1150.3,409z"/>
		<path class="st24" d="M1268,393.3l-5.2,12l3.2,13.3c-0.6,0.5-7.9,20.8-42.9,22.2c-14.3,0.6-24,0.9-24,0.9s-20.5,9.7-44.3,18.3
			c-0.9,0.5-1.8,0.9-2.8,0.9c-6,0.2-11-10.6-11.1-24.1s4.8-24.7,10.8-25c0.8,0,1.7,0.2,2.4,0.5C1214.3,402.9,1268,393.3,1268,393.3z
			"/>
		<path class="st30" d="M1257.4,399.4c10.7-6.5,15.1-12.2,23.6-12.2c7.9,0.1,13.9,8.8,34.3,30.7c4,4.8-2.3,11-9.2,5.7
			c-2,2.6-6.4,3.6-8.3,2.1l0,0c-3.2-2.7-20.7-13.7-23.9-16.4c-2.8-2.3-5.4-3.8-9.4-2.1c-3.2,1.3,2.2,4.7-1,6.7l-0.1,0
			c-4.1,2.5-9.3,1.3-11.7-2.7c-2.4-4-6-3.9-1.9-6.3C1250.2,404.6,1255.7,406.9,1257.4,399.4z"/>
		<path class="st30" d="M1233.7,410.8c9.8-5.6,17.1-10.3,20.4-10.1c5.5,0.5,8.2,2.2,9.5,3.6c3.1,3.1,9.3,12.7,12.2,15.9
			c2.9,3.2,5.6,6.4,8.4,9.6c1.7,2,1.4,5-0.6,6.7c-1.9,1.6-4.5,1.6-6.3,0.1l0,0c-3.2-2.7-6.4-5.5-9.6-8.1c-3.2-2.7-6.5-5.3-9.7-7.8
			c-0.8-0.6-1.6-1.2-2.4-1.8l-1.2-0.8l-0.5-0.3l-0.3-0.2l-0.1-0.1c0,0-0.1,0,0,0l0.2,0.2c1.3,0.8,1.8,0.7,1.9,0.8
			c0.1,0,0,0.1-0.3,0.2c-0.5,0.2-1.2,0.4-2,0.7c-3.2,1.3-7,3.4-10.3,5.3l-0.1,0c-4.1,2.5-9.3,1.3-11.7-2.7c-2.4-4-1-9.2,3.1-11.7
			C1234.6,410.1,1233.3,411,1233.7,410.8z"/>
		<path class="st28" d="M1270.2,393.7c5.5-0.3,8.5,1.1,9.9,2.2c6.4,4.9,23.4,21.6,24.2,22.3c2,1.7,2.1,4.7,0.3,6.7
			c-1.6,1.8-4.3,2.2-6.2,0.9l0,0c-3.1-2-16.4-11.2-21.9-14.8c-0.7-0.5-4.4-3.3-9.8-3.3"/>
		<path class="st28" d="M1254,400.7c5.5,0.5,8.2,2.2,9.5,3.6c3.1,3.1,9.3,12.7,12.2,15.9c2.9,3.2,5.6,6.4,8.4,9.6
			c1.7,2,1.4,5-0.6,6.7c-1.9,1.6-4.5,1.6-6.3,0.1l0,0c-3.2-2.7-6.4-5.5-9.6-8.1c-3.2-2.7-6.5-5.3-9.7-7.8"/>
		<path class="st29" d="M1063,412.1c0,0,47.1-20.1,65.9-7.9c2.1,1.4,4,3.1,5.6,5"/>
	</g>
	<g id="Head_1_">
		<path class="st24" d="M1195,322c-15.9-2.4-40.2-12.6-40.1-19.3c-0.2,11.9,18.2-60.1,18.2-60.1l44,25.3l-10.3,37.1
			C1229.4,316.3,1210.9,324.4,1195,322z"/>
		<path class="st7" d="M1232.4,197.5c66,143.1,13.1,140.7-16.8,107.8c11.6-2.4,31.4-11.8,29.2-54c-0.7,44.9-36.6,48.3-36.6,48.3
			l2.7-39.8c6.2-1.1-36.2-9.4-36.2-9.4c25.9,49.8,48.4,103.2-28,61.2c-23.2-12.7-40.7,5.9-59.8,35.6c-6-28.2,7-44.2,30.1-66.3
			c35.4-34,23.1-54,18.3-70.9c-3-10.5-1.2-24.8,6.2-35.4c-25.6-7.6-11.3-31.5-1.6-27.2c0,0-0.6-12.7,7.1-18.7
			c3.8-3.6,9-5.8,14.6-5.8c6.6,0,12.5,3,16.4,7.7c6.8,7.3,5.8,20.1,3.8,29.6c24-9.6,40.4,4.5,43.6,11.3c7.6-0.3,18.2,2.6,21,17.9
			c0,0-7.8,1.8-11.6,2.5C1222.2,202.1,1230.5,193.4,1232.4,197.5z"/>
		<path class="st7" d="M1212,290.9c-22.8-9.1-31.5-41.6-31.5-41.6l6.1,1.1l30.5,17.5L1212,290.9z"/>
		<path class="st24" d="M1172.5,246c-6.8,3.3-12.7,1.6-16.5-4.7c-3.1-5.1-3.5-13.6,1.6-17.2c4.1-2.9,11.6-0.7,15.4,3
			c0.2,0.2,0.6,0.6,0.7,0.8c12.2-11.8,5.6-23.9,5.6-23.9c18.2-2,20.6-24.3,20.6-24.4l4.1,15.5c12.6-0.5,23.7-2,30.4-2.6
			c2,7.5,1.6,11.8,4.3,23.5c4.1,17.6,1.7,49.7-19.2,56.3C1207.2,276.1,1186.3,273,1172.5,246z M1173,227.2
			C1173,227.2,1173,227.1,1173,227.2C1172.9,227,1172.9,227,1173,227.2z M1199.9,179.6"/>
		<path class="st17" d="M1164.3,233.8c-2.4,1.7-3.2,4.8-1.7,7.1c1.5,2.3,4.6,2.8,7,1.1"/>
		<path class="st17" d="M1204.6,241.5c0,0,7.6,8,18.7,4.6"/>
		<path class="st17" d="M1219.8,206.7c0,0,7.4-8.4,15.3-5.4"/>
		<path class="st17" d="M1226.7,210.2l4.9-3.2"/>
		<path class="st17" d="M1196.7,215.2l5.6-3.5"/>
		<path class="st17" d="M1184.5,212.2c-0.2,1.2,8.7-12.2,24.5-4.8"/>
		<path class="st17" d="M1217.1,212.1c0,0-1.5,7.4,5.1,13c6.5,5.4,3.9,14.1-5.1,12.9"/>
		<path class="st17" d="M1171.2,237l-11.5-5.9"/>
		<path class="st7" d="M1196.4,213.9c1.5-0.3,3,1.6,3.2,4.1c0.2,2.6-0.8,4.8-2.4,5.1c-1.5,0.3-3-1.6-3.2-4.1
			C1193.8,216.5,1194.9,214.2,1196.4,213.9z"/>
		<path class="st7" d="M1227.3,208.9c1.5-0.3,3,1.6,3.2,4.1c0.2,2.6-0.8,4.8-2.4,5.1s-3-1.6-3.2-4.1
			C1224.7,211.4,1225.8,209.1,1227.3,208.9z"/>
	</g>
</g>
<g id="Character_1">
	<g id="Left_hand_2">
		<path class="st6" d="M552.9,335.6c0,0,31.4,66.6,69.5,85.8c54.4,27.3-61.5,24-77.2-1.1S515.6,366.5,552.9,335.6z"/>
		<path class="st6" d="M575.1,411.2c30.1-13.5,65.8,0.9,79.9,32.2c14.1,31.3,1.2,67.7-28.9,81.2c-30.1,13.5-65.8-0.9-79.9-32.2
			C532.1,461.1,545,424.8,575.1,411.2z"/>
		<path class="st31" d="M546.2,492.4c-14.1-31.3-1.2-67.7,28.9-81.2c12.3-5.5,25.5-6.4,37.8-3.3"/>
	</g>
	<path class="st25" d="M441.9,537.5c57.9-0.9,104.9,7.8,104.9,17.2c0,9.4-47,17.7-104.9,18.6c-57.9,0.9-104.9-6-104.9-15.3
		C337.1,548.6,384,538.4,441.9,537.5z"/>
	<g id="Right_leg">
		<path class="st6" d="M253.6,1093.9c-31.5,15.7-71.3,18-91.9,6.3c-14.9-7.9-23-23.4-22.4-33.7c19-6.7,42.7,1,42.7,1
			s64.5-24.9,92.4-36.1c-1.6,0.6,42.7,19.6,33.1,50C300.9,1086.6,268.8,1086.4,253.6,1093.9z"/>
		<path class="st12" d="M270.2,906.2l55.4-1.2l-31.6,114l-55-0.4L270.2,906.2z"/>
		<path class="st25" d="M318.3,933.4c0,0.2,0.1,0.3,0.1,0.5c-0.2,3.5-13.2,6.3-29,6.3c-15.7,0-28.4-2.8-28.2-6.3l-0.1,0l9.5-33.7
			L328,899L318.3,933.4z"/>
		<path class="st32" d="M323.3,915.6l-5.3,18.7c0,0-28.5-12.8-52.1-18l1.5-5.5c6.7,3.7,17.1,6,33.1,5.9
			C309.5,916.7,317,916.4,323.3,915.6z"/>
		<path class="st25" d="M444.7,573.3c0,0-60.8,170.4-89.4,250.9c-10.8,30.3-1.6,42.1-2.4,60.6c-0.6,25.8-12.2,31.8-52.2,32
			c-51.6,0.3-45.5-25.2-42.9-37.5c0.4-1.9,0.9-3.8,1.6-5.5L347.9,557C454.1,532,444.7,573.3,444.7,573.3z"/>
		<path class="st33" d="M242,1003.7l-59.3,52.3c0,0-24.4,3.5-43.5,10.3c4.7,5.1,19.6,32.3,50,31.9c30-0.4,51.3-13.1,65.4-22.6
			c19.5-13.1,44.5-18.1,47.5-19.6c9.1-19.6-5.3-47-5.3-47s-16.3,1.6-25,8.9c-1-28.9,0.9-28.5-17-31.3
			C239.7,984.4,242.8,992.8,242,1003.7z"/>
		<path class="st34" d="M234.7,1043c0,0-31.5-2.6-50.4,11.8c16.7,0.5,32.5,5.2,32.5,5.2c2.7-18-14.7-21.4-14.7-21.4
			c5.6-4.3,19.5-11,49.5-10.4c0,0-3.7-3.4-17-5.8c-9.7-1.7-16.5,1.7-16.5,1.7C225.9,1026.5,234.5,1032.5,234.7,1043z"/>
	</g>
	<g id="Left_leg">
		<path class="st6" d="M557.4,1109.6H522c-15.4,0-30.2-8-35-17c-2.2-4.2-11.4-8.8-14.2-10.2c-10.3-5.2-12.9-6.7-11.8-14.3
			c2.5-17.4,18.4-34.9,18.4-34.9l85,41.1c0,0,16,2.7,18.5,15.5C583.5,1095.1,578.9,1109.6,557.4,1109.6z"/>
		<path class="st12" d="M528.1,891.6l-55.5-1.1l4.2,135.2l54.4-1.2L528.1,891.6z"/>
		<path class="st33" d="M582.5,1090c-0.3-6.7-9.9-15.4-19.5-14c-13,2-26.3,21.8-33.7,25.9c-15.7,1.4-28.2-3.8-37.5-12.9
			c-2.7-10.5-6.1-27.4-10.7-32.4c-3.8-4.1-11-4.8-12-9.8c1.4-25.7,6.7-40.3,6.7-40.3s10.7,7.9,16.9,6.4c2.3-9.8-5-18.8,22.1-19.1
			c18.7-0.2,17.5,4.5,18.4,18.8l27.4,55.6C560.7,1068.1,582.6,1077,582.5,1090z"/>
		<path class="st34" d="M510.6,1045.4c0,0,32.4-1.3,42.2,13.9c-16.6-0.2-35,3.9-35,3.9c8.3-18.1,27.3-20.8,27.3-20.8
			c-2.8-4.6-12.5-11.8-42.1-12.4c0,0,5.7-3.3,20.1-5c10.5-1.3,15.1,2.3,15.1,2.3C529.1,1029.4,517.1,1035,510.6,1045.4z"/>
		<path class="st25" d="M503.8,912.7c-53.6,0-48.2-26.1-41.1-79.3l-18.1-260.1c0,0,21.4-22,45.7-28c20.8-5.1,44.9,9.7,44.9,9.7
			s-1.9,157.9-3.1,229.2c-0.4,21.5-1,54.2,5.4,67.3C549.2,875.3,555.1,912.7,503.8,912.7z"/>
		<path class="st25" d="M530.5,933.9c-0.8,3.5-14.1,6.3-29.8,6.3c-15.8,0-28.1-2.8-27.4-6.3c0-0.2,0.1-0.3,0.2-0.5l-1.1-34.4
			l57.2,1.2l1.1,33.7L530.5,933.9z"/>
		<path class="st7" d="M449.1,636.6l-4.4-63.3c0,0,5.2-5.3,13.3-11.4l24.2-4.3C482.1,557.6,473.2,599.8,449.1,636.6z"/>
		<path class="st7" d="M472.6,907.1c7,3.7,17,5.5,31.2,5.5c11.2,0,19.7-1.8,25.9-4.8l0.8,26.1l-1.1,0
			c-15.8-12.2-51.4-20.7-56.7-21.9L472.6,907.1z"/>
	</g>
	<g id="pelvis">
		<path class="st25" d="M441.9,537.5c52.1-0.9,94.3,7.8,94.3,17.2c0,9.4-42.2,17.7-94.3,18.6c-52.1,0.9-94.3-6-94.3-15.3
			C347.7,548.6,389.9,538.4,441.9,537.5z"/>
		<path class="st7" d="M347,561.4c-0.1-1.9,1.2-5.2,1.3-5.4c5.3-8.8,45.2-17.7,93.7-18.5c64-1.1,93.8,7.6,94.4,16.9l0,0l-1.4,23.5
			C456.4,539.1,356.8,555.2,347,561.4z"/>
	</g>
	<g id="Body">
		<path class="st10" d="M441.9,537.5c-13,0.2-25.4,1-36.6,2.3V302.5l105.6,9.3l18.5,232.4h-11.9C500.3,539.8,472.9,537,441.9,537.5z
			"/>
		<path class="st6" d="M459,332.8c-22.4,0-40.6-7.6-40.6-17c0-0.5,0.1-1,0.2-1.5l0.6-10.6l78.5,6.9c1.2,1.6,1.9,3.4,1.9,5.2
			C499.6,325.2,481.4,332.8,459,332.8z"/>
		<path class="st32" d="M334.5,448.9c17.1-10.9,32.8-16.8,35.1-13.2s-9.6,15.4-26.7,26.3c-17.1,10.9-32.8,16.8-35.1,13.2
			C305.5,471.6,317.4,459.8,334.5,448.9z"/>
		<path class="st6" d="M546.8,538.2c0-7.4-16.3-14.5-42.6-18c0,0,23.7-32.4,1-95.3c-30.1-83.3-20-132.9-20-132.9
			c15.5,8.7,27.7,11.8,36.4,14.5c20.1,5,35,23.2,35,44.9c0,11.3-4.1,21.7-10.8,29.7c11.4,44.6,29.4,96.2,30.7,110.1
			C580.1,528.5,563.3,535.8,546.8,538.2z M441.9,518c-57,1.2-103.4,11.8-104.8,23.9c-2.8-0.9-23-8.2-25.1-31.7
			c-1.3-14.1,12.2-40.1,22.5-70.5c3.8-11.1,4.5-24.9,3.6-39.2c-25.1-0.6-45.2-21.1-45.2-46.3c0-20.1,12.8-37.2,30.7-43.6
			c25.5-10.1,109.4-17.6,109.4-17.6s9.8,11.2,14.4,30.9c13.2,57,34.4,172.3-2.6,193.7C443.9,518.1,443,517.6,441.9,518z"/>
		<path class="st33" d="M323.7,310.6c25.5-10.1,109.4-17.6,109.4-17.6s9.8,11.2,14.4,30.9c7.4,31.9,17.3,81.7,18.1,123.1
			c-48.7-7.9-100.6-28.2-127.1-39.6c-0.1-2.3-0.1-4.6-0.3-6.9c-6.3-0.1-12.4-1.6-17.8-4c-0.8-11-3.7-51.4-7.1-80.5
			C316.4,313.8,319.9,311.9,323.7,310.6z M510.4,441.4c-1.3-5.3-3-10.8-5.1-16.5c-30.1-83.3-20-132.9-20-132.9
			c15.5,8.7,27.7,11.8,36.4,14.5c20.1,5,35,23.2,35,44.9c0,11.3-4.1,21.7-10.8,29.7c1.8,7.1,3.8,14.4,5.9,21.7
			C543,414.1,528.6,430.8,510.4,441.4z"/>
		<path class="st33" d="M392.9,458.5l0.1,0.1l-1.1,0.5c-40.4,26.3-75.1,44.4-77.7,40.3c-0.1-0.1-0.1-0.3-0.1-0.5L302,477.2
			c-0.2-0.1,0.1,0.2,0,0c-1.7-2.5,10-13.4,29-27.6l-1.1,2.8c-12,9.5-19,16.4-17.8,18.3c2.3,3.5,32.2-12.1,67-34.7l0.5,0.9
			c0.1-0.1,0.2-0.1,0.2-0.1l8.7,14.7L392.9,458.5C392.9,458.5,392.9,458.5,392.9,458.5z"/>
		<path class="st25" d="M545.6,556.1c-1-6.3-15.7-10.5-39.9-13.6l-1.4-22.3c25,3.4,41.5,9.3,42.5,16.4l0.1,0v18.5L545.6,556.1z
			 M445.6,539.4c-1.2,0-2.4,0-3.6,0.1c-51.8,1-94.8,9.1-103.3,18.8l-1.6-0.2l-0.1-16.8l0.1,0c0.8-12.2,47.4-23,104.9-24.2
			c1.2,0,2.5,0,3.7-0.1L445.6,539.4z"/>
	</g>
	<g id="Left_hand_1">
		<path class="st25" d="M614.6,461.3c0,17.3-11.9,31.1-33.6,31.1c-14.4-34.9-3.2-65.9-3.2-65.9l15.7,5l0,0
			C605.8,435.8,614.6,447.6,614.6,461.3z"/>
		<path class="st7" d="M568.5,425.3c17.3,0,31.3,14,31.3,31.3c0,13-8,24.2-19.3,28.9c-16.9-44.3-25-38.7-32.7-52.5
			C553.3,428.2,560.6,425.3,568.5,425.3z"/>
		<path class="st15" d="M568.5,429.1c15.2,0,27.6,12.3,27.6,27.6c0,11.6-7.1,21.5-17.2,25.5c0.6-8.3-4.3-41.3-35.7-36.3
			C547.3,436,557.1,429.1,568.5,429.1z"/>
		<path class="st33" d="M584,479.6c0,0,0-15.8-12.1-30.4c-10.3-12.5-24.1-16-24.1-16l-8.7,20.9c0,0,15.5,5,25.8,17.5
			c12,14.6,11.6,31.6,11.6,31.6L584,479.6z"/>
	</g>
	<g id="Right_hand">
		<path id="shoulder" class="st6" d="M364.6,392.9C364.6,392.9,364.6,392.9,364.6,392.9c-57.3,45.7-108.5,49.3-108.5,49.3
			s-0.1-0.1-0.2-0.3c-1.1,0.1-2.1,0.1-3.2,0.1c-28,0-50.7-22.7-50.7-50.6c0-25.2,18.4-46.1,42.6-50c0.2,0,0.3-0.1,0.5-0.1
			c27.9-5.7,46.3-11.5,58-16.1c8.5-10.5,21.5-17.2,36-17.2c25.6,0,46.3,20.7,46.3,46.3C385.5,370.4,377.2,384.6,364.6,392.9z"/>
		<g id="forearm">
			<path class="st6" d="M290.5,425.5c-9.3,10.3-22.7,16.9-37.7,16.9c-22.4,0-41.4-14.6-48.1-34.8c-1.8-5.1-3.1-11.4-3.8-19.1
				c-7.1-82,58.1-76.2,58.1-76.2C376.5,335.1,316.8,401.5,290.5,425.5z"/>
			<path class="st35" d="M259,312.3c106.6,20.7,67.3,77.3,39.5,105.5"/>
			<path class="st25" d="M320.8,331.3c0,0-9.7,20.3-10.1,21c-3.2,6.1-18.8,4.4-35.1-3.9c-16.2-8.3-26.8-20-23.6-26.2
				c0.3-0.6,10.9-21.8,10.9-21.8L320.8,331.3z"/>
			<path class="st7" d="M297.8,304.5c16.2,8.3,26.8,20,23.6,26.2c-3.2,6.1-18.8,4.4-35.1-3.9c-16.2-8.3-26.8-20-23.6-26.2
				C265.9,294.5,281.6,296.2,297.8,304.5z"/>
			<path class="st15" d="M348.9,289.9c-0.5,5.2-5,11.7-32.2,39c-3.2,4.7-16.2,3.1-29.6-3.8c-13.8-7.1-22.8-17.1-20.1-22.3
				c8-14.3,24.2-44.5,24.2-44.5s0.1,0,0.2,0.1c0.1-0.2,0.2-0.4,0.3-0.6c4.4-7.3,15.1-15.5,21.3-5.3c1.8-2.6,7.3-2,9.8-0.6
				c3.7,2.2,6.4,5.3,8.2,8.8c3.2,2.4,6.3,4.9,9.3,8c2.1,2.2,4.2,4.7,6.1,7.9c0.9,1.6,1.7,3.5,2.3,5.7
				C349.3,284.4,349.2,285.7,348.9,289.9z"/>
			<path class="st11" d="M375.2,233.7L331.3,301c-3.1,4.7-9.3,6-14,3c-4.7-3.1-6-9.3-3-14c0.2-0.3,0.5-0.7,0.8-1l52.1-61.3
				c1.8-2.1,5-2.4,7.1-0.6C376.2,228.7,376.6,231.6,375.2,233.7z"/>
			<path class="st11" d="M357.9,221.3l-31.4,64c-2.2,4.4-7.5,6.2-11.9,4.1c-4.4-2.2-6.2-7.5-4.1-11.9c0.1-0.3,0.3-0.6,0.5-0.8
				l38.2-60.3c1.5-2.3,4.6-3,6.9-1.6C358.2,216.2,359,219,357.9,221.3z"/>
			<path class="st17" d="M313,251.8c2.6-1.4,5.4-1.9,8.1-0.5c15.4,7.8-2.9,33.6-9.9,30.2c-3.8-1.9-4.6-4.7-4.1-7.5"/>
			<path class="st36" d="M301.9,309c-4.9-5.5-3.4-13.2,0.4-18.7c7.9-11.3,24.9-8,24.9-8s0.6-4.5-6.9-16.9l-0.2-0.2
				c-1.9-2.1-1.7-5.3,0.4-7.1c1.7-1.6,4.3-1.7,6.1-0.5c5,3.2,9.4,6.6,13.8,11c2.7,2.8,10.6,11.1,8.6,21.3"/>
			<path class="st17" d="M288.4,264.6c0,0,10.2-21.3,20.4-16.1c14.6,7.5-2.8,32-9.5,28.7c-9.5-4.7,0.9-15.5,0.9-15.5"/>
		</g>
	</g>
	<g id="Neck">
		<path class="st7" d="M454.2,261.1c20.6,0,37.3,5.7,37.3,12.8c0,7.1-5.6,41.6-26.2,41.6c-20.6,0-48.3-34.5-48.3-41.6
			C416.9,266.8,433.6,261.1,454.2,261.1z"/>
		<path class="st25" d="M488.8,286.1c-0.3,0.3-0.7,0.5-1.1,0.7l-0.8-13.1l-0.1,0c-0.3-6.1-14.8-11-32.6-11c-18,0-32.6,5-32.6,11.2
			c0,0.9,0.3,1.7,0.9,2.5l1.5,4.9c-4.4-2.1-7-4.7-7-7.5c0-7.1,16.7-12.8,37.3-12.8c20.6,0,37.3,5.7,37.3,12.8
			C491.5,275.7,490.9,284.5,488.8,286.1z"/>
		<path class="st15" d="M490,307.2c0,7.2-13.9,13-31,13s-31-5.8-31-13c0-0.4,0-0.8,0.1-1.2l3.7-67.7l50,8.1l4.1,54.3
			C488.5,302.6,490,304.8,490,307.2z"/>
		<path class="st7" d="M441,239.8l40.8,6.6l1,13c-4.1,11.8-16.9,26.3-53.7,33.7c-0.1,0-0.2,0-0.3,0l2.8-52.2
			C434.6,240.5,437.7,240.1,441,239.8z"/>
		<path class="st25" d="M491.4,272.8c0,0-6.7,11.9-8.7,29.1c-2.2,18.5,1.9,33.8,1.9,33.8s6.4-5.2,10.8-16.8
			c4-10.6,2.7-18.8,2.7-18.8L491.4,272.8z"/>
		<path class="st25" d="M450.5,338.7c0,0-14.4-4.3-28.1-20.7c-12.8-15.3-13.2-22.6-13.2-22.6l8.2-23.4
			C417.4,272,451.6,297,450.5,338.7z"/>
	</g>
	<g id="Head">
		<path class="st15" d="M491.6,224.3c2.4,20.6-6.3,34.3-13.6,42c-2.7,2.8-6.1,4.8-9.8,5.9c-3.7,1.1-7.7,1.1-11.5,0.1
			c-10.4-2.8-25.2-10.1-33.9-29.4c-6.1,6-16.5,1.8-21.3-5.7c-4.9-7.7-4.2-16.3,1.6-19.2c2.5-1.2,6.9-1.2,11.5-0.2
			c-3.3-10.8-6.8-21.7-8-27.4c0.6-0.4,1.1-0.8,1.6-1.2c0.9-5.8,5.5-12.4,21.3-17c19.4-5.7,49.8,4,51.1,9.9c0.1,0.5,0.1,1,0,1.5
			c1.2,4,2.6,8.5,4.1,13.7c3.1-2.7,6.3-4.5,8.7-4.7c6.5-0.6,11.6,6.4,11.4,15.5C504.8,216.4,499.1,224.7,491.6,224.3z"/>
		<path class="st17" d="M490.9,203.7c4.5-1.5,11.3,8.7,2.4,14.4"/>
		<path class="st7" d="M432.4,215.1c1.5-0.5,3.3,1.2,4.1,3.7c0.8,2.5,0.3,4.9-1.2,5.4c-1.5,0.5-3.3-1.2-4.1-3.7
			C430.4,218,430.9,215.6,432.4,215.1z"/>
		<path class="st7" d="M463.9,205.2c1.5-0.5,3.3,1.2,4.1,3.7c0.8,2.5,0.3,4.9-1.2,5.4c-1.5,0.5-3.3-1.2-4.1-3.7
			C461.8,208.1,462.4,205.7,463.9,205.2z"/>
		<path class="st17" d="M437.5,203.3c0,0-12.8-1.8-18.8,7.9"/>
		<path class="st17" d="M453.6,198.8c0,0,6.4-8.5,20.2-5.9"/>
		<path class="st17" d="M441.4,203.1c0,0,7.4,5.7,5.5,19c-1.4,10,7.8,12.2,12.5,4.4"/>
		<path class="st17" d="M496.4,196.9c0,0-4.5,3.4-6.3,8.5c-1.8,5.1-1.6,7.9-1.6,7.9"/>
		<path class="st17" d="M412.7,225.7c-4.6,1.1-5.1,13.3,5.5,13.5"/>
		<path class="st17" d="M404.5,222.8c0,0,5.6,0.6,9.8,4c4.2,3.4,5.5,5.9,5.5,5.9"/>
		<path class="st7" d="M458.5,236.6c5.9-1.6,11.3-3.3,16.2-5.1c0,10-4.6,18.4-12.1,20.4c-7.5,2-15.6-2.9-20.7-11.5
			C447,239.4,452.6,238.1,458.5,236.6z"/>
		<path class="st6" d="M443.2,240.1c4.8-0.9,9.9-2.1,15.3-3.5c5.4-1.5,10.4-3,15-4.7c-1.3,5.2-6.2,9.9-13.1,11.8
			C453.6,245.5,446.9,243.9,443.2,240.1z"/>
		<path class="st10" d="M416.9,222.9c0,0-5.6-17.9-9-29.2c0-5.4,8.5-17.9,30.9-9.4c28.6,10.9,37.9,0.9,37.9,0.9l8.4,19
			c0,0,0.8-8.7-3.1-25.8c4.6-31.4-23.4-46.5-34.1-46.8c-13.8-0.5-20,16-20,16s-37.8,5.7-24.5,30.2c-10.4,5.3-6.8,12.5-2,20.8
			C406.6,207.5,409.2,211.9,416.9,222.9z"/>
		<path class="st37" d="M482.2,177.8c0,0.3-0.1,0.5-0.1,0.8c3.9,17.1,3.1,25.8,3.1,25.8l-8.4-19
			C478.9,183.6,480.8,181.1,482.2,177.8z M466.8,189.2c-6,0.8-15,0.1-28-4.8c-22.4-8.5-30.9,4-30.9,9.4c2.9,9.6,7.3,23.9,8.6,28
			c-0.3-0.2-0.6-0.4-0.8-0.6c-6.8-9.8-9.3-14.2-14.2-22.5c-4.9-8.3-8.4-15.5,2-20.8c-1.8-3.3-2.6-6.2-2.8-8.9
			c5.7-4.2,15.3-3,24.6,3.8C436.7,180.1,453.7,190.1,466.8,189.2z"/>
	</g>
</g>
</svg>
